<svg xmlns="http://www.w3.org/2000/svg" xmlns:xlink="http://www.w3.org/1999/xlink" width="500" zoomAndPan="magnify" viewBox="0 0 375 374.999991" height="500" preserveAspectRatio="xMidYMid meet" version="1.0"><defs><g/><clipPath id="ba050050d7"><path d="M 130 64.386719 L 245 64.386719 L 245 212 L 130 212 Z M 130 64.386719 " clip-rule="nonzero"/></clipPath></defs><rect x="-37.5" width="450" fill="#ffffff" y="-37.499999" height="449.999989" fill-opacity="1"/><rect x="-37.5" width="450" fill="#f1f1f1" y="-37.499999" height="449.999989" fill-opacity="1"/><g fill="#ff6a00" fill-opacity="0.4"><g transform="translate(117.90023, 298.33211)"><g><path d="M 2.671875 -9.375 C 2.828125 -9.375 2.941406 -9.335938 3.015625 -9.265625 C 3.085938 -9.191406 3.125 -9.078125 3.125 -8.921875 L 3.125 -5.90625 C 3.363281 -6.175781 3.640625 -6.382812 3.953125 -6.53125 C 4.273438 -6.675781 4.625 -6.75 5 -6.75 C 5.625 -6.75 6.164062 -6.597656 6.625 -6.296875 C 7.09375 -5.992188 7.453125 -5.578125 7.703125 -5.046875 C 7.953125 -4.523438 8.078125 -3.941406 8.078125 -3.296875 C 8.078125 -2.648438 7.953125 -2.0625 7.703125 -1.53125 C 7.453125 -1.007812 7.09375 -0.597656 6.625 -0.296875 C 6.164062 0.00390625 5.625 0.15625 5 0.15625 C 4.550781 0.15625 4.140625 0.0507812 3.765625 -0.15625 C 3.390625 -0.375 3.078125 -0.671875 2.828125 -1.046875 L 2.828125 -0.453125 C 2.828125 -0.285156 2.789062 -0.164062 2.71875 -0.09375 C 2.65625 -0.03125 2.546875 0 2.390625 0 L 0.78125 0 C 0.664062 0 0.578125 -0.0195312 0.515625 -0.0625 C 0.453125 -0.101562 0.40625 -0.175781 0.375 -0.28125 C 0.34375 -0.382812 0.328125 -0.535156 0.328125 -0.734375 C 0.328125 -0.929688 0.34375 -1.082031 0.375 -1.1875 C 0.40625 -1.289062 0.453125 -1.363281 0.515625 -1.40625 C 0.578125 -1.445312 0.664062 -1.46875 0.78125 -1.46875 L 1.328125 -1.46875 L 1.328125 -7.90625 L 0.640625 -7.90625 C 0.523438 -7.90625 0.4375 -7.921875 0.375 -7.953125 C 0.3125 -7.992188 0.265625 -8.066406 0.234375 -8.171875 C 0.203125 -8.273438 0.1875 -8.429688 0.1875 -8.640625 C 0.1875 -8.835938 0.203125 -8.988281 0.234375 -9.09375 C 0.265625 -9.195312 0.3125 -9.269531 0.375 -9.3125 C 0.4375 -9.351562 0.523438 -9.375 0.640625 -9.375 Z M 4.71875 -5.140625 C 4.40625 -5.140625 4.125 -5.066406 3.875 -4.921875 C 3.632812 -4.773438 3.441406 -4.5625 3.296875 -4.28125 C 3.148438 -4.007812 3.078125 -3.679688 3.078125 -3.296875 C 3.078125 -2.921875 3.148438 -2.59375 3.296875 -2.3125 C 3.441406 -2.03125 3.632812 -1.816406 3.875 -1.671875 C 4.125 -1.535156 4.40625 -1.46875 4.71875 -1.46875 C 5.007812 -1.46875 5.265625 -1.539062 5.484375 -1.6875 C 5.703125 -1.832031 5.867188 -2.046875 5.984375 -2.328125 C 6.097656 -2.609375 6.15625 -2.929688 6.15625 -3.296875 C 6.15625 -3.671875 6.097656 -3.992188 5.984375 -4.265625 C 5.867188 -4.546875 5.703125 -4.757812 5.484375 -4.90625 C 5.265625 -5.0625 5.007812 -5.140625 4.71875 -5.140625 Z M 4.71875 -5.140625 "/></g></g></g><g fill="#ff6a00" fill-opacity="0.4"><g transform="translate(126.669517, 298.33211)"><g><path d="M 4.3125 -6.75 C 5.351562 -6.75 6.109375 -6.523438 6.578125 -6.078125 C 7.046875 -5.628906 7.28125 -4.984375 7.28125 -4.140625 L 7.28125 -2.078125 C 7.28125 -1.878906 7.316406 -1.726562 7.390625 -1.625 C 7.472656 -1.519531 7.59375 -1.46875 7.75 -1.46875 L 7.96875 -1.46875 C 8.082031 -1.46875 8.171875 -1.445312 8.234375 -1.40625 C 8.296875 -1.363281 8.34375 -1.289062 8.375 -1.1875 C 8.40625 -1.082031 8.421875 -0.929688 8.421875 -0.734375 C 8.421875 -0.523438 8.40625 -0.367188 8.375 -0.265625 C 8.34375 -0.160156 8.296875 -0.0859375 8.234375 -0.046875 C 8.171875 -0.015625 8.082031 0 7.96875 0 L 7.171875 0 C 6.878906 0 6.617188 -0.0546875 6.390625 -0.171875 C 6.160156 -0.296875 5.988281 -0.488281 5.875 -0.75 C 5.5 -0.46875 5.097656 -0.242188 4.671875 -0.078125 C 4.253906 0.078125 3.828125 0.15625 3.390625 0.15625 C 2.847656 0.15625 2.378906 0.0664062 1.984375 -0.109375 C 1.597656 -0.296875 1.300781 -0.554688 1.09375 -0.890625 C 0.882812 -1.234375 0.78125 -1.640625 0.78125 -2.109375 C 0.78125 -2.773438 1.015625 -3.289062 1.484375 -3.65625 C 1.960938 -4.019531 2.625 -4.203125 3.46875 -4.203125 C 4.101562 -4.203125 4.773438 -4.128906 5.484375 -3.984375 L 5.484375 -4.203125 C 5.484375 -4.515625 5.382812 -4.75 5.1875 -4.90625 C 4.988281 -5.0625 4.640625 -5.140625 4.140625 -5.140625 C 3.859375 -5.140625 3.539062 -5.101562 3.1875 -5.03125 C 2.84375 -4.957031 2.503906 -4.863281 2.171875 -4.75 C 2.085938 -4.726562 2.019531 -4.71875 1.96875 -4.71875 C 1.84375 -4.71875 1.734375 -4.757812 1.640625 -4.84375 C 1.546875 -4.9375 1.460938 -5.085938 1.390625 -5.296875 C 1.316406 -5.503906 1.28125 -5.675781 1.28125 -5.8125 C 1.28125 -6.050781 1.390625 -6.210938 1.609375 -6.296875 C 2.035156 -6.453125 2.484375 -6.566406 2.953125 -6.640625 C 3.429688 -6.710938 3.882812 -6.75 4.3125 -6.75 Z M 3.65625 -2.734375 C 3.320312 -2.734375 3.066406 -2.671875 2.890625 -2.546875 C 2.710938 -2.429688 2.625 -2.257812 2.625 -2.03125 C 2.625 -1.8125 2.707031 -1.640625 2.875 -1.515625 C 3.050781 -1.398438 3.296875 -1.34375 3.609375 -1.34375 C 3.941406 -1.34375 4.265625 -1.410156 4.578125 -1.546875 C 4.898438 -1.679688 5.203125 -1.859375 5.484375 -2.078125 L 5.484375 -2.546875 C 4.859375 -2.671875 4.25 -2.734375 3.65625 -2.734375 Z M 3.65625 -2.734375 "/></g></g></g><g fill="#ff6a00" fill-opacity="0.4"><g transform="translate(135.438804, 298.33211)"><g><path d="M 6.8125 -6.75 C 7.113281 -6.75 7.316406 -6.71875 7.421875 -6.65625 C 7.535156 -6.59375 7.59375 -6.476562 7.59375 -6.3125 L 7.59375 -4.015625 C 7.59375 -3.847656 7.519531 -3.726562 7.375 -3.65625 C 7.226562 -3.59375 6.984375 -3.5625 6.640625 -3.5625 C 6.421875 -3.5625 6.25 -3.578125 6.125 -3.609375 C 6.007812 -3.640625 5.925781 -3.6875 5.875 -3.75 C 5.832031 -3.8125 5.8125 -3.898438 5.8125 -4.015625 C 5.8125 -4.210938 5.757812 -4.394531 5.65625 -4.5625 C 5.5625 -4.738281 5.414062 -4.878906 5.21875 -4.984375 C 5.03125 -5.085938 4.800781 -5.140625 4.53125 -5.140625 C 4.1875 -5.140625 3.882812 -5.0625 3.625 -4.90625 C 3.363281 -4.757812 3.164062 -4.546875 3.03125 -4.265625 C 2.894531 -3.984375 2.828125 -3.660156 2.828125 -3.296875 C 2.828125 -2.929688 2.894531 -2.609375 3.03125 -2.328125 C 3.164062 -2.046875 3.363281 -1.832031 3.625 -1.6875 C 3.882812 -1.539062 4.1875 -1.46875 4.53125 -1.46875 C 4.894531 -1.46875 5.269531 -1.523438 5.65625 -1.640625 C 6.039062 -1.765625 6.410156 -1.929688 6.765625 -2.140625 C 6.847656 -2.179688 6.925781 -2.203125 7 -2.203125 C 7.21875 -2.203125 7.40625 -2.015625 7.5625 -1.640625 C 7.65625 -1.429688 7.703125 -1.257812 7.703125 -1.125 C 7.703125 -0.90625 7.597656 -0.738281 7.390625 -0.625 C 6.953125 -0.375 6.488281 -0.179688 6 -0.046875 C 5.507812 0.0859375 5.019531 0.15625 4.53125 0.15625 C 3.800781 0.15625 3.160156 0.0078125 2.609375 -0.28125 C 2.066406 -0.582031 1.644531 -0.992188 1.34375 -1.515625 C 1.050781 -2.035156 0.90625 -2.628906 0.90625 -3.296875 C 0.90625 -3.960938 1.054688 -4.554688 1.359375 -5.078125 C 1.660156 -5.609375 2.066406 -6.019531 2.578125 -6.3125 C 3.097656 -6.601562 3.675781 -6.75 4.3125 -6.75 C 5.082031 -6.75 5.628906 -6.472656 5.953125 -5.921875 L 5.953125 -6.3125 C 5.953125 -6.46875 6.019531 -6.578125 6.15625 -6.640625 C 6.289062 -6.710938 6.507812 -6.75 6.8125 -6.75 Z M 6.8125 -6.75 "/></g></g></g><g fill="#ff6a00" fill-opacity="0.4"><g transform="translate(144.20809, 298.33211)"><g><path d="M 7.890625 -1.46875 C 8.054688 -1.46875 8.171875 -1.414062 8.234375 -1.3125 C 8.304688 -1.207031 8.34375 -1.015625 8.34375 -0.734375 C 8.34375 -0.523438 8.328125 -0.367188 8.296875 -0.265625 C 8.265625 -0.160156 8.21875 -0.0859375 8.15625 -0.046875 C 8.09375 -0.015625 8.003906 0 7.890625 0 L 6.671875 0 C 6.429688 0 6.25 -0.09375 6.125 -0.28125 L 4.328125 -2.78125 L 3.328125 -2.03125 L 3.328125 -1.46875 L 3.953125 -1.46875 C 4.066406 -1.46875 4.15625 -1.445312 4.21875 -1.40625 C 4.28125 -1.363281 4.328125 -1.289062 4.359375 -1.1875 C 4.390625 -1.082031 4.40625 -0.929688 4.40625 -0.734375 C 4.40625 -0.523438 4.390625 -0.367188 4.359375 -0.265625 C 4.328125 -0.160156 4.28125 -0.0859375 4.21875 -0.046875 C 4.15625 -0.015625 4.066406 0 3.953125 0 L 1 0 C 0.882812 0 0.796875 -0.015625 0.734375 -0.046875 C 0.671875 -0.0859375 0.625 -0.160156 0.59375 -0.265625 C 0.5625 -0.367188 0.546875 -0.523438 0.546875 -0.734375 C 0.546875 -0.929688 0.5625 -1.082031 0.59375 -1.1875 C 0.625 -1.289062 0.671875 -1.363281 0.734375 -1.40625 C 0.796875 -1.445312 0.882812 -1.46875 1 -1.46875 L 1.546875 -1.46875 L 1.546875 -7.90625 L 0.859375 -7.90625 C 0.742188 -7.90625 0.65625 -7.921875 0.59375 -7.953125 C 0.53125 -7.992188 0.484375 -8.066406 0.453125 -8.171875 C 0.421875 -8.273438 0.40625 -8.429688 0.40625 -8.640625 C 0.40625 -8.835938 0.421875 -8.988281 0.453125 -9.09375 C 0.484375 -9.195312 0.53125 -9.269531 0.59375 -9.3125 C 0.65625 -9.351562 0.742188 -9.375 0.859375 -9.375 L 2.890625 -9.375 C 3.046875 -9.375 3.15625 -9.335938 3.21875 -9.265625 C 3.289062 -9.191406 3.328125 -9.078125 3.328125 -8.921875 L 3.328125 -3.765625 L 5.1875 -5.28125 L 4.828125 -5.28125 C 4.660156 -5.28125 4.546875 -5.320312 4.484375 -5.40625 C 4.421875 -5.5 4.390625 -5.675781 4.390625 -5.9375 C 4.390625 -6.195312 4.421875 -6.367188 4.484375 -6.453125 C 4.546875 -6.546875 4.660156 -6.59375 4.828125 -6.59375 L 7.796875 -6.59375 C 7.960938 -6.59375 8.078125 -6.546875 8.140625 -6.453125 C 8.203125 -6.367188 8.234375 -6.195312 8.234375 -5.9375 C 8.234375 -5.675781 8.203125 -5.5 8.140625 -5.40625 C 8.078125 -5.320312 7.960938 -5.28125 7.796875 -5.28125 L 7.5 -5.28125 L 5.734375 -3.84375 L 7.46875 -1.46875 Z M 7.890625 -1.46875 "/></g></g></g><g fill="#ff6a00" fill-opacity="0.4"><g transform="translate(152.977377, 298.33211)"><g><path d="M 4.484375 -6.75 C 5.203125 -6.75 5.816406 -6.59375 6.328125 -6.28125 C 6.835938 -5.96875 7.222656 -5.535156 7.484375 -4.984375 C 7.742188 -4.429688 7.875 -3.796875 7.875 -3.078125 C 7.875 -2.921875 7.835938 -2.804688 7.765625 -2.734375 C 7.703125 -2.671875 7.585938 -2.640625 7.421875 -2.640625 L 2.84375 -2.640625 C 2.9375 -2.265625 3.128906 -1.972656 3.421875 -1.765625 C 3.722656 -1.566406 4.101562 -1.46875 4.5625 -1.46875 C 5.289062 -1.46875 6.085938 -1.597656 6.953125 -1.859375 C 7.015625 -1.878906 7.070312 -1.890625 7.125 -1.890625 C 7.226562 -1.890625 7.316406 -1.835938 7.390625 -1.734375 C 7.472656 -1.640625 7.546875 -1.476562 7.609375 -1.25 C 7.648438 -1.082031 7.671875 -0.9375 7.671875 -0.8125 C 7.671875 -0.6875 7.644531 -0.585938 7.59375 -0.515625 C 7.539062 -0.453125 7.453125 -0.394531 7.328125 -0.34375 C 6.847656 -0.1875 6.359375 -0.0664062 5.859375 0.015625 C 5.367188 0.109375 4.882812 0.15625 4.40625 0.15625 C 3.6875 0.15625 3.0625 0.0078125 2.53125 -0.28125 C 2.007812 -0.582031 1.613281 -0.992188 1.34375 -1.515625 C 1.070312 -2.035156 0.9375 -2.628906 0.9375 -3.296875 C 0.9375 -3.960938 1.078125 -4.554688 1.359375 -5.078125 C 1.648438 -5.609375 2.0625 -6.019531 2.59375 -6.3125 C 3.132812 -6.601562 3.765625 -6.75 4.484375 -6.75 Z M 4.484375 -5.140625 C 3.609375 -5.140625 3.070312 -4.769531 2.875 -4.03125 L 6.015625 -4.03125 C 5.929688 -4.382812 5.753906 -4.65625 5.484375 -4.84375 C 5.222656 -5.039062 4.890625 -5.140625 4.484375 -5.140625 Z M 4.484375 -5.140625 "/></g></g></g><g fill="#ff6a00" fill-opacity="0.4"><g transform="translate(161.746663, 298.33211)"><g><path d="M 5.40625 -6.75 C 5.84375 -6.75 6.222656 -6.65625 6.546875 -6.46875 C 6.867188 -6.28125 7.117188 -6.007812 7.296875 -5.65625 C 7.472656 -5.3125 7.5625 -4.898438 7.5625 -4.421875 L 7.5625 -1.46875 L 8.109375 -1.46875 C 8.222656 -1.46875 8.3125 -1.445312 8.375 -1.40625 C 8.4375 -1.363281 8.484375 -1.289062 8.515625 -1.1875 C 8.546875 -1.082031 8.5625 -0.929688 8.5625 -0.734375 C 8.5625 -0.523438 8.546875 -0.367188 8.515625 -0.265625 C 8.484375 -0.160156 8.4375 -0.0859375 8.375 -0.046875 C 8.3125 -0.015625 8.222656 0 8.109375 0 L 5.4375 0 C 5.320312 0 5.234375 -0.015625 5.171875 -0.046875 C 5.109375 -0.0859375 5.0625 -0.160156 5.03125 -0.265625 C 5 -0.367188 4.984375 -0.523438 4.984375 -0.734375 C 4.984375 -0.929688 5 -1.082031 5.03125 -1.1875 C 5.0625 -1.289062 5.109375 -1.363281 5.171875 -1.40625 C 5.234375 -1.445312 5.320312 -1.46875 5.4375 -1.46875 L 5.78125 -1.46875 L 5.78125 -4 C 5.78125 -4.375 5.710938 -4.65625 5.578125 -4.84375 C 5.453125 -5.039062 5.238281 -5.140625 4.9375 -5.140625 C 4.664062 -5.140625 4.40625 -5.019531 4.15625 -4.78125 C 3.90625 -4.550781 3.703125 -4.242188 3.546875 -3.859375 C 3.398438 -3.472656 3.328125 -3.0625 3.328125 -2.625 L 3.328125 -1.46875 L 3.671875 -1.46875 C 3.785156 -1.46875 3.875 -1.445312 3.9375 -1.40625 C 4 -1.363281 4.046875 -1.289062 4.078125 -1.1875 C 4.109375 -1.082031 4.125 -0.929688 4.125 -0.734375 C 4.125 -0.523438 4.109375 -0.367188 4.078125 -0.265625 C 4.046875 -0.160156 4 -0.0859375 3.9375 -0.046875 C 3.875 -0.015625 3.785156 0 3.671875 0 L 1 0 C 0.882812 0 0.796875 -0.015625 0.734375 -0.046875 C 0.671875 -0.0859375 0.625 -0.160156 0.59375 -0.265625 C 0.5625 -0.367188 0.546875 -0.523438 0.546875 -0.734375 C 0.546875 -0.929688 0.5625 -1.082031 0.59375 -1.1875 C 0.625 -1.289062 0.671875 -1.363281 0.734375 -1.40625 C 0.796875 -1.445312 0.882812 -1.46875 1 -1.46875 L 1.546875 -1.46875 L 1.546875 -5.140625 L 0.859375 -5.140625 C 0.742188 -5.140625 0.65625 -5.15625 0.59375 -5.1875 C 0.53125 -5.226562 0.484375 -5.300781 0.453125 -5.40625 C 0.421875 -5.507812 0.40625 -5.660156 0.40625 -5.859375 C 0.40625 -6.054688 0.421875 -6.207031 0.453125 -6.3125 C 0.484375 -6.425781 0.53125 -6.5 0.59375 -6.53125 C 0.65625 -6.570312 0.742188 -6.59375 0.859375 -6.59375 L 2.59375 -6.59375 C 2.757812 -6.59375 2.875 -6.554688 2.9375 -6.484375 C 3.007812 -6.421875 3.046875 -6.3125 3.046875 -6.15625 L 3.046875 -5.109375 C 3.671875 -6.203125 4.457031 -6.75 5.40625 -6.75 Z M 5.40625 -6.75 "/></g></g></g><g fill="#ff6a00" fill-opacity="0.4"><g transform="translate(170.51595, 298.33211)"><g><path d="M 6.984375 -9.375 C 7.148438 -9.375 7.265625 -9.335938 7.328125 -9.265625 C 7.398438 -9.191406 7.4375 -9.078125 7.4375 -8.921875 L 7.4375 -1.46875 L 8.0625 -1.46875 C 8.175781 -1.46875 8.257812 -1.445312 8.3125 -1.40625 C 8.375 -1.363281 8.421875 -1.289062 8.453125 -1.1875 C 8.484375 -1.082031 8.5 -0.929688 8.5 -0.734375 C 8.5 -0.535156 8.484375 -0.382812 8.453125 -0.28125 C 8.421875 -0.175781 8.375 -0.101562 8.3125 -0.0625 C 8.257812 -0.0195312 8.175781 0 8.0625 0 L 6.390625 0 C 6.222656 0 6.101562 -0.03125 6.03125 -0.09375 C 5.96875 -0.164062 5.9375 -0.285156 5.9375 -0.453125 L 5.9375 -1.046875 C 5.6875 -0.671875 5.375 -0.375 5 -0.15625 C 4.632812 0.0507812 4.222656 0.15625 3.765625 0.15625 C 3.140625 0.15625 2.59375 0.00390625 2.125 -0.296875 C 1.664062 -0.597656 1.3125 -1.007812 1.0625 -1.53125 C 0.8125 -2.0625 0.6875 -2.648438 0.6875 -3.296875 C 0.6875 -3.941406 0.8125 -4.523438 1.0625 -5.046875 C 1.3125 -5.578125 1.664062 -5.992188 2.125 -6.296875 C 2.59375 -6.597656 3.140625 -6.75 3.765625 -6.75 C 4.140625 -6.75 4.484375 -6.675781 4.796875 -6.53125 C 5.117188 -6.382812 5.40625 -6.175781 5.65625 -5.90625 L 5.65625 -7.90625 L 4.59375 -7.90625 C 4.476562 -7.90625 4.390625 -7.921875 4.328125 -7.953125 C 4.265625 -7.992188 4.21875 -8.066406 4.1875 -8.171875 C 4.164062 -8.273438 4.15625 -8.429688 4.15625 -8.640625 C 4.15625 -8.835938 4.164062 -8.988281 4.1875 -9.09375 C 4.21875 -9.195312 4.265625 -9.269531 4.328125 -9.3125 C 4.390625 -9.351562 4.476562 -9.375 4.59375 -9.375 Z M 4.0625 -5.140625 C 3.757812 -5.140625 3.5 -5.0625 3.28125 -4.90625 C 3.0625 -4.757812 2.894531 -4.546875 2.78125 -4.265625 C 2.664062 -3.992188 2.609375 -3.671875 2.609375 -3.296875 C 2.609375 -2.929688 2.664062 -2.609375 2.78125 -2.328125 C 2.894531 -2.046875 3.0625 -1.832031 3.28125 -1.6875 C 3.5 -1.539062 3.757812 -1.46875 4.0625 -1.46875 C 4.363281 -1.46875 4.632812 -1.535156 4.875 -1.671875 C 5.125 -1.816406 5.320312 -2.03125 5.46875 -2.3125 C 5.625 -2.59375 5.703125 -2.921875 5.703125 -3.296875 C 5.703125 -3.679688 5.625 -4.007812 5.46875 -4.28125 C 5.320312 -4.5625 5.125 -4.773438 4.875 -4.921875 C 4.632812 -5.066406 4.363281 -5.140625 4.0625 -5.140625 Z M 4.0625 -5.140625 "/></g></g></g><g fill="#ff6a00" fill-opacity="0.4"><g transform="translate(179.285236, 298.33211)"><g/></g></g><g fill="#ff6a00" fill-opacity="0.4"><g transform="translate(188.054523, 298.33211)"><g><path d="M 6.984375 -9.375 C 7.148438 -9.375 7.265625 -9.335938 7.328125 -9.265625 C 7.398438 -9.191406 7.4375 -9.078125 7.4375 -8.921875 L 7.4375 -1.46875 L 8.0625 -1.46875 C 8.175781 -1.46875 8.257812 -1.445312 8.3125 -1.40625 C 8.375 -1.363281 8.421875 -1.289062 8.453125 -1.1875 C 8.484375 -1.082031 8.5 -0.929688 8.5 -0.734375 C 8.5 -0.535156 8.484375 -0.382812 8.453125 -0.28125 C 8.421875 -0.175781 8.375 -0.101562 8.3125 -0.0625 C 8.257812 -0.0195312 8.175781 0 8.0625 0 L 6.390625 0 C 6.222656 0 6.101562 -0.03125 6.03125 -0.09375 C 5.96875 -0.164062 5.9375 -0.285156 5.9375 -0.453125 L 5.9375 -1.046875 C 5.6875 -0.671875 5.375 -0.375 5 -0.15625 C 4.632812 0.0507812 4.222656 0.15625 3.765625 0.15625 C 3.140625 0.15625 2.59375 0.00390625 2.125 -0.296875 C 1.664062 -0.597656 1.3125 -1.007812 1.0625 -1.53125 C 0.8125 -2.0625 0.6875 -2.648438 0.6875 -3.296875 C 0.6875 -3.941406 0.8125 -4.523438 1.0625 -5.046875 C 1.3125 -5.578125 1.664062 -5.992188 2.125 -6.296875 C 2.59375 -6.597656 3.140625 -6.75 3.765625 -6.75 C 4.140625 -6.75 4.484375 -6.675781 4.796875 -6.53125 C 5.117188 -6.382812 5.40625 -6.175781 5.65625 -5.90625 L 5.65625 -7.90625 L 4.59375 -7.90625 C 4.476562 -7.90625 4.390625 -7.921875 4.328125 -7.953125 C 4.265625 -7.992188 4.21875 -8.066406 4.1875 -8.171875 C 4.164062 -8.273438 4.15625 -8.429688 4.15625 -8.640625 C 4.15625 -8.835938 4.164062 -8.988281 4.1875 -9.09375 C 4.21875 -9.195312 4.265625 -9.269531 4.328125 -9.3125 C 4.390625 -9.351562 4.476562 -9.375 4.59375 -9.375 Z M 4.0625 -5.140625 C 3.757812 -5.140625 3.5 -5.0625 3.28125 -4.90625 C 3.0625 -4.757812 2.894531 -4.546875 2.78125 -4.265625 C 2.664062 -3.992188 2.609375 -3.671875 2.609375 -3.296875 C 2.609375 -2.929688 2.664062 -2.609375 2.78125 -2.328125 C 2.894531 -2.046875 3.0625 -1.832031 3.28125 -1.6875 C 3.5 -1.539062 3.757812 -1.46875 4.0625 -1.46875 C 4.363281 -1.46875 4.632812 -1.535156 4.875 -1.671875 C 5.125 -1.816406 5.320312 -2.03125 5.46875 -2.3125 C 5.625 -2.59375 5.703125 -2.921875 5.703125 -3.296875 C 5.703125 -3.679688 5.625 -4.007812 5.46875 -4.28125 C 5.320312 -4.5625 5.125 -4.773438 4.875 -4.921875 C 4.632812 -5.066406 4.363281 -5.140625 4.0625 -5.140625 Z M 4.0625 -5.140625 "/></g></g></g><g fill="#ff6a00" fill-opacity="0.4"><g transform="translate(196.823809, 298.33211)"><g><path d="M 4.484375 -6.75 C 5.203125 -6.75 5.816406 -6.59375 6.328125 -6.28125 C 6.835938 -5.96875 7.222656 -5.535156 7.484375 -4.984375 C 7.742188 -4.429688 7.875 -3.796875 7.875 -3.078125 C 7.875 -2.921875 7.835938 -2.804688 7.765625 -2.734375 C 7.703125 -2.671875 7.585938 -2.640625 7.421875 -2.640625 L 2.84375 -2.640625 C 2.9375 -2.265625 3.128906 -1.972656 3.421875 -1.765625 C 3.722656 -1.566406 4.101562 -1.46875 4.5625 -1.46875 C 5.289062 -1.46875 6.085938 -1.597656 6.953125 -1.859375 C 7.015625 -1.878906 7.070312 -1.890625 7.125 -1.890625 C 7.226562 -1.890625 7.316406 -1.835938 7.390625 -1.734375 C 7.472656 -1.640625 7.546875 -1.476562 7.609375 -1.25 C 7.648438 -1.082031 7.671875 -0.9375 7.671875 -0.8125 C 7.671875 -0.6875 7.644531 -0.585938 7.59375 -0.515625 C 7.539062 -0.453125 7.453125 -0.394531 7.328125 -0.34375 C 6.847656 -0.1875 6.359375 -0.0664062 5.859375 0.015625 C 5.367188 0.109375 4.882812 0.15625 4.40625 0.15625 C 3.6875 0.15625 3.0625 0.0078125 2.53125 -0.28125 C 2.007812 -0.582031 1.613281 -0.992188 1.34375 -1.515625 C 1.070312 -2.035156 0.9375 -2.628906 0.9375 -3.296875 C 0.9375 -3.960938 1.078125 -4.554688 1.359375 -5.078125 C 1.648438 -5.609375 2.0625 -6.019531 2.59375 -6.3125 C 3.132812 -6.601562 3.765625 -6.75 4.484375 -6.75 Z M 4.484375 -5.140625 C 3.609375 -5.140625 3.070312 -4.769531 2.875 -4.03125 L 6.015625 -4.03125 C 5.929688 -4.382812 5.753906 -4.65625 5.484375 -4.84375 C 5.222656 -5.039062 4.890625 -5.140625 4.484375 -5.140625 Z M 4.484375 -5.140625 "/></g></g></g><g fill="#ff6a00" fill-opacity="0.4"><g transform="translate(205.593096, 298.33211)"><g><path d="M 8.03125 -6.59375 C 8.144531 -6.59375 8.234375 -6.570312 8.296875 -6.53125 C 8.359375 -6.5 8.40625 -6.425781 8.4375 -6.3125 C 8.46875 -6.207031 8.484375 -6.054688 8.484375 -5.859375 C 8.484375 -5.660156 8.46875 -5.507812 8.4375 -5.40625 C 8.40625 -5.300781 8.359375 -5.226562 8.296875 -5.1875 C 8.234375 -5.15625 8.144531 -5.140625 8.03125 -5.140625 L 7.546875 -5.140625 L 5.453125 -0.3125 C 5.378906 -0.144531 5.257812 -0.0234375 5.09375 0.046875 C 4.9375 0.117188 4.691406 0.15625 4.359375 0.15625 C 4.023438 0.15625 3.78125 0.117188 3.625 0.046875 C 3.46875 -0.0234375 3.351562 -0.144531 3.28125 -0.3125 L 1.203125 -5.140625 L 0.734375 -5.140625 C 0.617188 -5.140625 0.53125 -5.15625 0.46875 -5.1875 C 0.40625 -5.226562 0.359375 -5.300781 0.328125 -5.40625 C 0.296875 -5.507812 0.28125 -5.660156 0.28125 -5.859375 C 0.28125 -6.054688 0.296875 -6.207031 0.328125 -6.3125 C 0.359375 -6.425781 0.40625 -6.5 0.46875 -6.53125 C 0.53125 -6.570312 0.617188 -6.59375 0.734375 -6.59375 L 3.625 -6.59375 C 3.738281 -6.59375 3.828125 -6.570312 3.890625 -6.53125 C 3.953125 -6.5 4 -6.425781 4.03125 -6.3125 C 4.0625 -6.207031 4.078125 -6.054688 4.078125 -5.859375 C 4.078125 -5.660156 4.0625 -5.507812 4.03125 -5.40625 C 4 -5.300781 3.953125 -5.226562 3.890625 -5.1875 C 3.828125 -5.15625 3.738281 -5.140625 3.625 -5.140625 L 3.140625 -5.140625 L 4.40625 -1.984375 L 5.6875 -5.140625 L 5.296875 -5.140625 C 5.179688 -5.140625 5.09375 -5.15625 5.03125 -5.1875 C 4.96875 -5.226562 4.921875 -5.300781 4.890625 -5.40625 C 4.859375 -5.507812 4.84375 -5.660156 4.84375 -5.859375 C 4.84375 -6.054688 4.859375 -6.207031 4.890625 -6.3125 C 4.921875 -6.425781 4.96875 -6.5 5.03125 -6.53125 C 5.09375 -6.570312 5.179688 -6.59375 5.296875 -6.59375 Z M 8.03125 -6.59375 "/></g></g></g><g fill="#ff6a00" fill-opacity="0.4"><g transform="translate(214.362382, 298.33211)"><g><path d="M 4.484375 -6.75 C 5.203125 -6.75 5.816406 -6.59375 6.328125 -6.28125 C 6.835938 -5.96875 7.222656 -5.535156 7.484375 -4.984375 C 7.742188 -4.429688 7.875 -3.796875 7.875 -3.078125 C 7.875 -2.921875 7.835938 -2.804688 7.765625 -2.734375 C 7.703125 -2.671875 7.585938 -2.640625 7.421875 -2.640625 L 2.84375 -2.640625 C 2.9375 -2.265625 3.128906 -1.972656 3.421875 -1.765625 C 3.722656 -1.566406 4.101562 -1.46875 4.5625 -1.46875 C 5.289062 -1.46875 6.085938 -1.597656 6.953125 -1.859375 C 7.015625 -1.878906 7.070312 -1.890625 7.125 -1.890625 C 7.226562 -1.890625 7.316406 -1.835938 7.390625 -1.734375 C 7.472656 -1.640625 7.546875 -1.476562 7.609375 -1.25 C 7.648438 -1.082031 7.671875 -0.9375 7.671875 -0.8125 C 7.671875 -0.6875 7.644531 -0.585938 7.59375 -0.515625 C 7.539062 -0.453125 7.453125 -0.394531 7.328125 -0.34375 C 6.847656 -0.1875 6.359375 -0.0664062 5.859375 0.015625 C 5.367188 0.109375 4.882812 0.15625 4.40625 0.15625 C 3.6875 0.15625 3.0625 0.0078125 2.53125 -0.28125 C 2.007812 -0.582031 1.613281 -0.992188 1.34375 -1.515625 C 1.070312 -2.035156 0.9375 -2.628906 0.9375 -3.296875 C 0.9375 -3.960938 1.078125 -4.554688 1.359375 -5.078125 C 1.648438 -5.609375 2.0625 -6.019531 2.59375 -6.3125 C 3.132812 -6.601562 3.765625 -6.75 4.484375 -6.75 Z M 4.484375 -5.140625 C 3.609375 -5.140625 3.070312 -4.769531 2.875 -4.03125 L 6.015625 -4.03125 C 5.929688 -4.382812 5.753906 -4.65625 5.484375 -4.84375 C 5.222656 -5.039062 4.890625 -5.140625 4.484375 -5.140625 Z M 4.484375 -5.140625 "/></g></g></g><g fill="#ff6a00" fill-opacity="0.4"><g transform="translate(223.131669, 298.33211)"><g><path d="M 4.859375 -9.375 C 5.015625 -9.375 5.128906 -9.335938 5.203125 -9.265625 C 5.273438 -9.191406 5.3125 -9.078125 5.3125 -8.921875 L 5.3125 -1.46875 L 7.3125 -1.46875 C 7.425781 -1.46875 7.515625 -1.445312 7.578125 -1.40625 C 7.640625 -1.363281 7.6875 -1.289062 7.71875 -1.1875 C 7.75 -1.082031 7.765625 -0.929688 7.765625 -0.734375 C 7.765625 -0.523438 7.75 -0.367188 7.71875 -0.265625 C 7.6875 -0.160156 7.640625 -0.0859375 7.578125 -0.046875 C 7.515625 -0.015625 7.425781 0 7.3125 0 L 1.578125 0 C 1.460938 0 1.375 -0.015625 1.3125 -0.046875 C 1.25 -0.0859375 1.203125 -0.160156 1.171875 -0.265625 C 1.140625 -0.367188 1.125 -0.523438 1.125 -0.734375 C 1.125 -0.929688 1.140625 -1.082031 1.171875 -1.1875 C 1.203125 -1.289062 1.25 -1.363281 1.3125 -1.40625 C 1.375 -1.445312 1.460938 -1.46875 1.578125 -1.46875 L 3.515625 -1.46875 L 3.515625 -7.90625 L 1.859375 -7.90625 C 1.742188 -7.90625 1.65625 -7.921875 1.59375 -7.953125 C 1.53125 -7.992188 1.484375 -8.066406 1.453125 -8.171875 C 1.421875 -8.273438 1.40625 -8.429688 1.40625 -8.640625 C 1.40625 -8.835938 1.421875 -8.988281 1.453125 -9.09375 C 1.484375 -9.195312 1.53125 -9.269531 1.59375 -9.3125 C 1.65625 -9.351562 1.742188 -9.375 1.859375 -9.375 Z M 4.859375 -9.375 "/></g></g></g><g fill="#ff6a00" fill-opacity="0.4"><g transform="translate(231.900955, 298.33211)"><g><path d="M 4.390625 -6.75 C 5.109375 -6.75 5.738281 -6.601562 6.28125 -6.3125 C 6.820312 -6.019531 7.238281 -5.609375 7.53125 -5.078125 C 7.832031 -4.554688 7.984375 -3.960938 7.984375 -3.296875 C 7.984375 -2.628906 7.832031 -2.035156 7.53125 -1.515625 C 7.238281 -0.992188 6.820312 -0.582031 6.28125 -0.28125 C 5.738281 0.0078125 5.109375 0.15625 4.390625 0.15625 C 3.660156 0.15625 3.023438 0.0078125 2.484375 -0.28125 C 1.941406 -0.582031 1.523438 -0.992188 1.234375 -1.515625 C 0.941406 -2.035156 0.796875 -2.628906 0.796875 -3.296875 C 0.796875 -3.960938 0.941406 -4.554688 1.234375 -5.078125 C 1.523438 -5.609375 1.941406 -6.019531 2.484375 -6.3125 C 3.023438 -6.601562 3.660156 -6.75 4.390625 -6.75 Z M 4.390625 -5.140625 C 4.046875 -5.140625 3.742188 -5.0625 3.484375 -4.90625 C 3.234375 -4.757812 3.039062 -4.546875 2.90625 -4.265625 C 2.769531 -3.992188 2.703125 -3.671875 2.703125 -3.296875 C 2.703125 -2.929688 2.769531 -2.609375 2.90625 -2.328125 C 3.039062 -2.046875 3.234375 -1.832031 3.484375 -1.6875 C 3.742188 -1.539062 4.046875 -1.46875 4.390625 -1.46875 C 4.734375 -1.46875 5.03125 -1.539062 5.28125 -1.6875 C 5.53125 -1.832031 5.722656 -2.046875 5.859375 -2.328125 C 5.992188 -2.609375 6.0625 -2.929688 6.0625 -3.296875 C 6.0625 -3.671875 5.992188 -3.992188 5.859375 -4.265625 C 5.722656 -4.546875 5.53125 -4.757812 5.28125 -4.90625 C 5.03125 -5.0625 4.734375 -5.140625 4.390625 -5.140625 Z M 4.390625 -5.140625 "/></g></g></g><g fill="#ff6a00" fill-opacity="0.4"><g transform="translate(240.670242, 298.33211)"><g><path d="M 5 -6.75 C 5.625 -6.75 6.164062 -6.597656 6.625 -6.296875 C 7.09375 -5.992188 7.453125 -5.578125 7.703125 -5.046875 C 7.953125 -4.523438 8.078125 -3.941406 8.078125 -3.296875 C 8.078125 -2.648438 7.953125 -2.0625 7.703125 -1.53125 C 7.453125 -1.007812 7.09375 -0.597656 6.625 -0.296875 C 6.164062 0.00390625 5.625 0.15625 5 0.15625 C 4.625 0.15625 4.273438 0.0820312 3.953125 -0.0625 C 3.640625 -0.207031 3.363281 -0.414062 3.125 -0.6875 L 3.125 1.3125 L 4.3125 1.3125 C 4.425781 1.3125 4.515625 1.328125 4.578125 1.359375 C 4.640625 1.398438 4.6875 1.472656 4.71875 1.578125 C 4.75 1.679688 4.765625 1.832031 4.765625 2.03125 C 4.765625 2.226562 4.75 2.378906 4.71875 2.484375 C 4.6875 2.597656 4.640625 2.671875 4.578125 2.703125 C 4.515625 2.742188 4.425781 2.765625 4.3125 2.765625 L 0.71875 2.765625 C 0.601562 2.765625 0.515625 2.742188 0.453125 2.703125 C 0.390625 2.671875 0.34375 2.601562 0.3125 2.5 C 0.28125 2.394531 0.265625 2.242188 0.265625 2.046875 C 0.265625 1.847656 0.28125 1.691406 0.3125 1.578125 C 0.34375 1.472656 0.390625 1.398438 0.453125 1.359375 C 0.515625 1.328125 0.601562 1.3125 0.71875 1.3125 L 1.328125 1.3125 L 1.328125 -5.140625 L 0.71875 -5.140625 C 0.601562 -5.140625 0.515625 -5.15625 0.453125 -5.1875 C 0.390625 -5.226562 0.34375 -5.300781 0.3125 -5.40625 C 0.28125 -5.507812 0.265625 -5.660156 0.265625 -5.859375 C 0.265625 -6.054688 0.28125 -6.207031 0.3125 -6.3125 C 0.34375 -6.425781 0.390625 -6.5 0.453125 -6.53125 C 0.515625 -6.570312 0.601562 -6.59375 0.71875 -6.59375 L 2.390625 -6.59375 C 2.546875 -6.59375 2.65625 -6.554688 2.71875 -6.484375 C 2.789062 -6.421875 2.828125 -6.3125 2.828125 -6.15625 L 2.828125 -5.546875 C 3.078125 -5.929688 3.390625 -6.226562 3.765625 -6.4375 C 4.140625 -6.644531 4.550781 -6.75 5 -6.75 Z M 4.71875 -5.140625 C 4.40625 -5.140625 4.125 -5.066406 3.875 -4.921875 C 3.632812 -4.773438 3.441406 -4.5625 3.296875 -4.28125 C 3.148438 -4.007812 3.078125 -3.679688 3.078125 -3.296875 C 3.078125 -2.921875 3.148438 -2.59375 3.296875 -2.3125 C 3.441406 -2.03125 3.632812 -1.816406 3.875 -1.671875 C 4.125 -1.535156 4.40625 -1.46875 4.71875 -1.46875 C 5.007812 -1.46875 5.265625 -1.539062 5.484375 -1.6875 C 5.703125 -1.832031 5.867188 -2.046875 5.984375 -2.328125 C 6.097656 -2.609375 6.15625 -2.929688 6.15625 -3.296875 C 6.15625 -3.671875 6.097656 -3.992188 5.984375 -4.265625 C 5.867188 -4.546875 5.703125 -4.757812 5.484375 -4.90625 C 5.265625 -5.0625 5.007812 -5.140625 4.71875 -5.140625 Z M 4.71875 -5.140625 "/></g></g></g><g fill="#ff6a00" fill-opacity="0.4"><g transform="translate(249.439528, 298.33211)"><g><path d="M 4.484375 -6.75 C 5.203125 -6.75 5.816406 -6.59375 6.328125 -6.28125 C 6.835938 -5.96875 7.222656 -5.535156 7.484375 -4.984375 C 7.742188 -4.429688 7.875 -3.796875 7.875 -3.078125 C 7.875 -2.921875 7.835938 -2.804688 7.765625 -2.734375 C 7.703125 -2.671875 7.585938 -2.640625 7.421875 -2.640625 L 2.84375 -2.640625 C 2.9375 -2.265625 3.128906 -1.972656 3.421875 -1.765625 C 3.722656 -1.566406 4.101562 -1.46875 4.5625 -1.46875 C 5.289062 -1.46875 6.085938 -1.597656 6.953125 -1.859375 C 7.015625 -1.878906 7.070312 -1.890625 7.125 -1.890625 C 7.226562 -1.890625 7.316406 -1.835938 7.390625 -1.734375 C 7.472656 -1.640625 7.546875 -1.476562 7.609375 -1.25 C 7.648438 -1.082031 7.671875 -0.9375 7.671875 -0.8125 C 7.671875 -0.6875 7.644531 -0.585938 7.59375 -0.515625 C 7.539062 -0.453125 7.453125 -0.394531 7.328125 -0.34375 C 6.847656 -0.1875 6.359375 -0.0664062 5.859375 0.015625 C 5.367188 0.109375 4.882812 0.15625 4.40625 0.15625 C 3.6875 0.15625 3.0625 0.0078125 2.53125 -0.28125 C 2.007812 -0.582031 1.613281 -0.992188 1.34375 -1.515625 C 1.070312 -2.035156 0.9375 -2.628906 0.9375 -3.296875 C 0.9375 -3.960938 1.078125 -4.554688 1.359375 -5.078125 C 1.648438 -5.609375 2.0625 -6.019531 2.59375 -6.3125 C 3.132812 -6.601562 3.765625 -6.75 4.484375 -6.75 Z M 4.484375 -5.140625 C 3.609375 -5.140625 3.070312 -4.769531 2.875 -4.03125 L 6.015625 -4.03125 C 5.929688 -4.382812 5.753906 -4.65625 5.484375 -4.84375 C 5.222656 -5.039062 4.890625 -5.140625 4.484375 -5.140625 Z M 4.484375 -5.140625 "/></g></g></g><g fill="#ff6a00" fill-opacity="0.4"><g transform="translate(258.208815, 298.33211)"><g><path d="M 6.625 -6.75 C 7.03125 -6.75 7.410156 -6.617188 7.765625 -6.359375 C 7.972656 -6.203125 8.078125 -6 8.078125 -5.75 C 8.078125 -5.59375 8.035156 -5.410156 7.953125 -5.203125 C 7.859375 -4.984375 7.757812 -4.816406 7.65625 -4.703125 C 7.550781 -4.597656 7.4375 -4.546875 7.3125 -4.546875 C 7.25 -4.546875 7.179688 -4.566406 7.109375 -4.609375 C 6.835938 -4.753906 6.5625 -4.828125 6.28125 -4.828125 C 5.914062 -4.828125 5.570312 -4.707031 5.25 -4.46875 C 4.925781 -4.238281 4.664062 -3.921875 4.46875 -3.515625 C 4.28125 -3.109375 4.1875 -2.648438 4.1875 -2.140625 L 4.1875 -1.46875 L 6.234375 -1.46875 C 6.347656 -1.46875 6.4375 -1.445312 6.5 -1.40625 C 6.5625 -1.363281 6.609375 -1.289062 6.640625 -1.1875 C 6.671875 -1.082031 6.6875 -0.929688 6.6875 -0.734375 C 6.6875 -0.523438 6.671875 -0.367188 6.640625 -0.265625 C 6.609375 -0.160156 6.5625 -0.0859375 6.5 -0.046875 C 6.4375 -0.015625 6.347656 0 6.234375 0 L 1.359375 0 C 1.242188 0 1.15625 -0.015625 1.09375 -0.046875 C 1.03125 -0.0859375 0.984375 -0.160156 0.953125 -0.265625 C 0.921875 -0.367188 0.90625 -0.523438 0.90625 -0.734375 C 0.90625 -0.929688 0.921875 -1.082031 0.953125 -1.1875 C 0.984375 -1.289062 1.03125 -1.363281 1.09375 -1.40625 C 1.15625 -1.445312 1.242188 -1.46875 1.359375 -1.46875 L 2.40625 -1.46875 L 2.40625 -5.140625 L 1.578125 -5.140625 C 1.460938 -5.140625 1.375 -5.15625 1.3125 -5.1875 C 1.25 -5.226562 1.203125 -5.300781 1.171875 -5.40625 C 1.140625 -5.507812 1.125 -5.660156 1.125 -5.859375 C 1.125 -6.054688 1.140625 -6.207031 1.171875 -6.3125 C 1.203125 -6.425781 1.25 -6.5 1.3125 -6.53125 C 1.375 -6.570312 1.460938 -6.59375 1.578125 -6.59375 L 3.53125 -6.59375 C 3.6875 -6.59375 3.800781 -6.554688 3.875 -6.484375 C 3.945312 -6.421875 3.984375 -6.3125 3.984375 -6.15625 L 3.984375 -4.59375 C 4.335938 -5.289062 4.742188 -5.820312 5.203125 -6.1875 C 5.671875 -6.5625 6.144531 -6.75 6.625 -6.75 Z M 6.625 -6.75 "/></g></g></g><g fill="#a6a6a6" fill-opacity="1"><g transform="translate(117.770878, 298.202764)"><g><path d="M 2.671875 -9.375 C 2.828125 -9.375 2.941406 -9.335938 3.015625 -9.265625 C 3.085938 -9.191406 3.125 -9.078125 3.125 -8.921875 L 3.125 -5.90625 C 3.363281 -6.175781 3.640625 -6.382812 3.953125 -6.53125 C 4.273438 -6.675781 4.625 -6.75 5 -6.75 C 5.625 -6.75 6.164062 -6.597656 6.625 -6.296875 C 7.09375 -5.992188 7.453125 -5.578125 7.703125 -5.046875 C 7.953125 -4.523438 8.078125 -3.941406 8.078125 -3.296875 C 8.078125 -2.648438 7.953125 -2.0625 7.703125 -1.53125 C 7.453125 -1.007812 7.09375 -0.597656 6.625 -0.296875 C 6.164062 0.00390625 5.625 0.15625 5 0.15625 C 4.550781 0.15625 4.140625 0.0507812 3.765625 -0.15625 C 3.390625 -0.375 3.078125 -0.671875 2.828125 -1.046875 L 2.828125 -0.453125 C 2.828125 -0.285156 2.789062 -0.164062 2.71875 -0.09375 C 2.65625 -0.03125 2.546875 0 2.390625 0 L 0.78125 0 C 0.664062 0 0.578125 -0.0195312 0.515625 -0.0625 C 0.453125 -0.101562 0.40625 -0.175781 0.375 -0.28125 C 0.34375 -0.382812 0.328125 -0.535156 0.328125 -0.734375 C 0.328125 -0.929688 0.34375 -1.082031 0.375 -1.1875 C 0.40625 -1.289062 0.453125 -1.363281 0.515625 -1.40625 C 0.578125 -1.445312 0.664062 -1.46875 0.78125 -1.46875 L 1.328125 -1.46875 L 1.328125 -7.90625 L 0.640625 -7.90625 C 0.523438 -7.90625 0.4375 -7.921875 0.375 -7.953125 C 0.3125 -7.992188 0.265625 -8.066406 0.234375 -8.171875 C 0.203125 -8.273438 0.1875 -8.429688 0.1875 -8.640625 C 0.1875 -8.835938 0.203125 -8.988281 0.234375 -9.09375 C 0.265625 -9.195312 0.3125 -9.269531 0.375 -9.3125 C 0.4375 -9.351562 0.523438 -9.375 0.640625 -9.375 Z M 4.71875 -5.140625 C 4.40625 -5.140625 4.125 -5.066406 3.875 -4.921875 C 3.632812 -4.773438 3.441406 -4.5625 3.296875 -4.28125 C 3.148438 -4.007812 3.078125 -3.679688 3.078125 -3.296875 C 3.078125 -2.921875 3.148438 -2.59375 3.296875 -2.3125 C 3.441406 -2.03125 3.632812 -1.816406 3.875 -1.671875 C 4.125 -1.535156 4.40625 -1.46875 4.71875 -1.46875 C 5.007812 -1.46875 5.265625 -1.539062 5.484375 -1.6875 C 5.703125 -1.832031 5.867188 -2.046875 5.984375 -2.328125 C 6.097656 -2.609375 6.15625 -2.929688 6.15625 -3.296875 C 6.15625 -3.671875 6.097656 -3.992188 5.984375 -4.265625 C 5.867188 -4.546875 5.703125 -4.757812 5.484375 -4.90625 C 5.265625 -5.0625 5.007812 -5.140625 4.71875 -5.140625 Z M 4.71875 -5.140625 "/></g></g></g><g fill="#a6a6a6" fill-opacity="1"><g transform="translate(126.540164, 298.202764)"><g><path d="M 4.3125 -6.75 C 5.351562 -6.75 6.109375 -6.523438 6.578125 -6.078125 C 7.046875 -5.628906 7.28125 -4.984375 7.28125 -4.140625 L 7.28125 -2.078125 C 7.28125 -1.878906 7.316406 -1.726562 7.390625 -1.625 C 7.472656 -1.519531 7.59375 -1.46875 7.75 -1.46875 L 7.96875 -1.46875 C 8.082031 -1.46875 8.171875 -1.445312 8.234375 -1.40625 C 8.296875 -1.363281 8.34375 -1.289062 8.375 -1.1875 C 8.40625 -1.082031 8.421875 -0.929688 8.421875 -0.734375 C 8.421875 -0.523438 8.40625 -0.367188 8.375 -0.265625 C 8.34375 -0.160156 8.296875 -0.0859375 8.234375 -0.046875 C 8.171875 -0.015625 8.082031 0 7.96875 0 L 7.171875 0 C 6.878906 0 6.617188 -0.0546875 6.390625 -0.171875 C 6.160156 -0.296875 5.988281 -0.488281 5.875 -0.75 C 5.5 -0.46875 5.097656 -0.242188 4.671875 -0.078125 C 4.253906 0.078125 3.828125 0.15625 3.390625 0.15625 C 2.847656 0.15625 2.378906 0.0664062 1.984375 -0.109375 C 1.597656 -0.296875 1.300781 -0.554688 1.09375 -0.890625 C 0.882812 -1.234375 0.78125 -1.640625 0.78125 -2.109375 C 0.78125 -2.773438 1.015625 -3.289062 1.484375 -3.65625 C 1.960938 -4.019531 2.625 -4.203125 3.46875 -4.203125 C 4.101562 -4.203125 4.773438 -4.128906 5.484375 -3.984375 L 5.484375 -4.203125 C 5.484375 -4.515625 5.382812 -4.75 5.1875 -4.90625 C 4.988281 -5.0625 4.640625 -5.140625 4.140625 -5.140625 C 3.859375 -5.140625 3.539062 -5.101562 3.1875 -5.03125 C 2.84375 -4.957031 2.503906 -4.863281 2.171875 -4.75 C 2.085938 -4.726562 2.019531 -4.71875 1.96875 -4.71875 C 1.84375 -4.71875 1.734375 -4.757812 1.640625 -4.84375 C 1.546875 -4.9375 1.460938 -5.085938 1.390625 -5.296875 C 1.316406 -5.503906 1.28125 -5.675781 1.28125 -5.8125 C 1.28125 -6.050781 1.390625 -6.210938 1.609375 -6.296875 C 2.035156 -6.453125 2.484375 -6.566406 2.953125 -6.640625 C 3.429688 -6.710938 3.882812 -6.75 4.3125 -6.75 Z M 3.65625 -2.734375 C 3.320312 -2.734375 3.066406 -2.671875 2.890625 -2.546875 C 2.710938 -2.429688 2.625 -2.257812 2.625 -2.03125 C 2.625 -1.8125 2.707031 -1.640625 2.875 -1.515625 C 3.050781 -1.398438 3.296875 -1.34375 3.609375 -1.34375 C 3.941406 -1.34375 4.265625 -1.410156 4.578125 -1.546875 C 4.898438 -1.679688 5.203125 -1.859375 5.484375 -2.078125 L 5.484375 -2.546875 C 4.859375 -2.671875 4.25 -2.734375 3.65625 -2.734375 Z M 3.65625 -2.734375 "/></g></g></g><g fill="#a6a6a6" fill-opacity="1"><g transform="translate(135.309451, 298.202764)"><g><path d="M 6.8125 -6.75 C 7.113281 -6.75 7.316406 -6.71875 7.421875 -6.65625 C 7.535156 -6.59375 7.59375 -6.476562 7.59375 -6.3125 L 7.59375 -4.015625 C 7.59375 -3.847656 7.519531 -3.726562 7.375 -3.65625 C 7.226562 -3.59375 6.984375 -3.5625 6.640625 -3.5625 C 6.421875 -3.5625 6.25 -3.578125 6.125 -3.609375 C 6.007812 -3.640625 5.925781 -3.6875 5.875 -3.75 C 5.832031 -3.8125 5.8125 -3.898438 5.8125 -4.015625 C 5.8125 -4.210938 5.757812 -4.394531 5.65625 -4.5625 C 5.5625 -4.738281 5.414062 -4.878906 5.21875 -4.984375 C 5.03125 -5.085938 4.800781 -5.140625 4.53125 -5.140625 C 4.1875 -5.140625 3.882812 -5.0625 3.625 -4.90625 C 3.363281 -4.757812 3.164062 -4.546875 3.03125 -4.265625 C 2.894531 -3.984375 2.828125 -3.660156 2.828125 -3.296875 C 2.828125 -2.929688 2.894531 -2.609375 3.03125 -2.328125 C 3.164062 -2.046875 3.363281 -1.832031 3.625 -1.6875 C 3.882812 -1.539062 4.1875 -1.46875 4.53125 -1.46875 C 4.894531 -1.46875 5.269531 -1.523438 5.65625 -1.640625 C 6.039062 -1.765625 6.410156 -1.929688 6.765625 -2.140625 C 6.847656 -2.179688 6.925781 -2.203125 7 -2.203125 C 7.21875 -2.203125 7.40625 -2.015625 7.5625 -1.640625 C 7.65625 -1.429688 7.703125 -1.257812 7.703125 -1.125 C 7.703125 -0.90625 7.597656 -0.738281 7.390625 -0.625 C 6.953125 -0.375 6.488281 -0.179688 6 -0.046875 C 5.507812 0.0859375 5.019531 0.15625 4.53125 0.15625 C 3.800781 0.15625 3.160156 0.0078125 2.609375 -0.28125 C 2.066406 -0.582031 1.644531 -0.992188 1.34375 -1.515625 C 1.050781 -2.035156 0.90625 -2.628906 0.90625 -3.296875 C 0.90625 -3.960938 1.054688 -4.554688 1.359375 -5.078125 C 1.660156 -5.609375 2.066406 -6.019531 2.578125 -6.3125 C 3.097656 -6.601562 3.675781 -6.75 4.3125 -6.75 C 5.082031 -6.75 5.628906 -6.472656 5.953125 -5.921875 L 5.953125 -6.3125 C 5.953125 -6.46875 6.019531 -6.578125 6.15625 -6.640625 C 6.289062 -6.710938 6.507812 -6.75 6.8125 -6.75 Z M 6.8125 -6.75 "/></g></g></g><g fill="#a6a6a6" fill-opacity="1"><g transform="translate(144.078737, 298.202764)"><g><path d="M 7.890625 -1.46875 C 8.054688 -1.46875 8.171875 -1.414062 8.234375 -1.3125 C 8.304688 -1.207031 8.34375 -1.015625 8.34375 -0.734375 C 8.34375 -0.523438 8.328125 -0.367188 8.296875 -0.265625 C 8.265625 -0.160156 8.21875 -0.0859375 8.15625 -0.046875 C 8.09375 -0.015625 8.003906 0 7.890625 0 L 6.671875 0 C 6.429688 0 6.25 -0.09375 6.125 -0.28125 L 4.328125 -2.78125 L 3.328125 -2.03125 L 3.328125 -1.46875 L 3.953125 -1.46875 C 4.066406 -1.46875 4.15625 -1.445312 4.21875 -1.40625 C 4.28125 -1.363281 4.328125 -1.289062 4.359375 -1.1875 C 4.390625 -1.082031 4.40625 -0.929688 4.40625 -0.734375 C 4.40625 -0.523438 4.390625 -0.367188 4.359375 -0.265625 C 4.328125 -0.160156 4.28125 -0.0859375 4.21875 -0.046875 C 4.15625 -0.015625 4.066406 0 3.953125 0 L 1 0 C 0.882812 0 0.796875 -0.015625 0.734375 -0.046875 C 0.671875 -0.0859375 0.625 -0.160156 0.59375 -0.265625 C 0.5625 -0.367188 0.546875 -0.523438 0.546875 -0.734375 C 0.546875 -0.929688 0.5625 -1.082031 0.59375 -1.1875 C 0.625 -1.289062 0.671875 -1.363281 0.734375 -1.40625 C 0.796875 -1.445312 0.882812 -1.46875 1 -1.46875 L 1.546875 -1.46875 L 1.546875 -7.90625 L 0.859375 -7.90625 C 0.742188 -7.90625 0.65625 -7.921875 0.59375 -7.953125 C 0.53125 -7.992188 0.484375 -8.066406 0.453125 -8.171875 C 0.421875 -8.273438 0.40625 -8.429688 0.40625 -8.640625 C 0.40625 -8.835938 0.421875 -8.988281 0.453125 -9.09375 C 0.484375 -9.195312 0.53125 -9.269531 0.59375 -9.3125 C 0.65625 -9.351562 0.742188 -9.375 0.859375 -9.375 L 2.890625 -9.375 C 3.046875 -9.375 3.15625 -9.335938 3.21875 -9.265625 C 3.289062 -9.191406 3.328125 -9.078125 3.328125 -8.921875 L 3.328125 -3.765625 L 5.1875 -5.28125 L 4.828125 -5.28125 C 4.660156 -5.28125 4.546875 -5.320312 4.484375 -5.40625 C 4.421875 -5.5 4.390625 -5.675781 4.390625 -5.9375 C 4.390625 -6.195312 4.421875 -6.367188 4.484375 -6.453125 C 4.546875 -6.546875 4.660156 -6.59375 4.828125 -6.59375 L 7.796875 -6.59375 C 7.960938 -6.59375 8.078125 -6.546875 8.140625 -6.453125 C 8.203125 -6.367188 8.234375 -6.195312 8.234375 -5.9375 C 8.234375 -5.675781 8.203125 -5.5 8.140625 -5.40625 C 8.078125 -5.320312 7.960938 -5.28125 7.796875 -5.28125 L 7.5 -5.28125 L 5.734375 -3.84375 L 7.46875 -1.46875 Z M 7.890625 -1.46875 "/></g></g></g><g fill="#a6a6a6" fill-opacity="1"><g transform="translate(152.848024, 298.202764)"><g><path d="M 4.484375 -6.75 C 5.203125 -6.75 5.816406 -6.59375 6.328125 -6.28125 C 6.835938 -5.96875 7.222656 -5.535156 7.484375 -4.984375 C 7.742188 -4.429688 7.875 -3.796875 7.875 -3.078125 C 7.875 -2.921875 7.835938 -2.804688 7.765625 -2.734375 C 7.703125 -2.671875 7.585938 -2.640625 7.421875 -2.640625 L 2.84375 -2.640625 C 2.9375 -2.265625 3.128906 -1.972656 3.421875 -1.765625 C 3.722656 -1.566406 4.101562 -1.46875 4.5625 -1.46875 C 5.289062 -1.46875 6.085938 -1.597656 6.953125 -1.859375 C 7.015625 -1.878906 7.070312 -1.890625 7.125 -1.890625 C 7.226562 -1.890625 7.316406 -1.835938 7.390625 -1.734375 C 7.472656 -1.640625 7.546875 -1.476562 7.609375 -1.25 C 7.648438 -1.082031 7.671875 -0.9375 7.671875 -0.8125 C 7.671875 -0.6875 7.644531 -0.585938 7.59375 -0.515625 C 7.539062 -0.453125 7.453125 -0.394531 7.328125 -0.34375 C 6.847656 -0.1875 6.359375 -0.0664062 5.859375 0.015625 C 5.367188 0.109375 4.882812 0.15625 4.40625 0.15625 C 3.6875 0.15625 3.0625 0.0078125 2.53125 -0.28125 C 2.007812 -0.582031 1.613281 -0.992188 1.34375 -1.515625 C 1.070312 -2.035156 0.9375 -2.628906 0.9375 -3.296875 C 0.9375 -3.960938 1.078125 -4.554688 1.359375 -5.078125 C 1.648438 -5.609375 2.0625 -6.019531 2.59375 -6.3125 C 3.132812 -6.601562 3.765625 -6.75 4.484375 -6.75 Z M 4.484375 -5.140625 C 3.609375 -5.140625 3.070312 -4.769531 2.875 -4.03125 L 6.015625 -4.03125 C 5.929688 -4.382812 5.753906 -4.65625 5.484375 -4.84375 C 5.222656 -5.039062 4.890625 -5.140625 4.484375 -5.140625 Z M 4.484375 -5.140625 "/></g></g></g><g fill="#a6a6a6" fill-opacity="1"><g transform="translate(161.61731, 298.202764)"><g><path d="M 5.40625 -6.75 C 5.84375 -6.75 6.222656 -6.65625 6.546875 -6.46875 C 6.867188 -6.28125 7.117188 -6.007812 7.296875 -5.65625 C 7.472656 -5.3125 7.5625 -4.898438 7.5625 -4.421875 L 7.5625 -1.46875 L 8.109375 -1.46875 C 8.222656 -1.46875 8.3125 -1.445312 8.375 -1.40625 C 8.4375 -1.363281 8.484375 -1.289062 8.515625 -1.1875 C 8.546875 -1.082031 8.5625 -0.929688 8.5625 -0.734375 C 8.5625 -0.523438 8.546875 -0.367188 8.515625 -0.265625 C 8.484375 -0.160156 8.4375 -0.0859375 8.375 -0.046875 C 8.3125 -0.015625 8.222656 0 8.109375 0 L 5.4375 0 C 5.320312 0 5.234375 -0.015625 5.171875 -0.046875 C 5.109375 -0.0859375 5.0625 -0.160156 5.03125 -0.265625 C 5 -0.367188 4.984375 -0.523438 4.984375 -0.734375 C 4.984375 -0.929688 5 -1.082031 5.03125 -1.1875 C 5.0625 -1.289062 5.109375 -1.363281 5.171875 -1.40625 C 5.234375 -1.445312 5.320312 -1.46875 5.4375 -1.46875 L 5.78125 -1.46875 L 5.78125 -4 C 5.78125 -4.375 5.710938 -4.65625 5.578125 -4.84375 C 5.453125 -5.039062 5.238281 -5.140625 4.9375 -5.140625 C 4.664062 -5.140625 4.40625 -5.019531 4.15625 -4.78125 C 3.90625 -4.550781 3.703125 -4.242188 3.546875 -3.859375 C 3.398438 -3.472656 3.328125 -3.0625 3.328125 -2.625 L 3.328125 -1.46875 L 3.671875 -1.46875 C 3.785156 -1.46875 3.875 -1.445312 3.9375 -1.40625 C 4 -1.363281 4.046875 -1.289062 4.078125 -1.1875 C 4.109375 -1.082031 4.125 -0.929688 4.125 -0.734375 C 4.125 -0.523438 4.109375 -0.367188 4.078125 -0.265625 C 4.046875 -0.160156 4 -0.0859375 3.9375 -0.046875 C 3.875 -0.015625 3.785156 0 3.671875 0 L 1 0 C 0.882812 0 0.796875 -0.015625 0.734375 -0.046875 C 0.671875 -0.0859375 0.625 -0.160156 0.59375 -0.265625 C 0.5625 -0.367188 0.546875 -0.523438 0.546875 -0.734375 C 0.546875 -0.929688 0.5625 -1.082031 0.59375 -1.1875 C 0.625 -1.289062 0.671875 -1.363281 0.734375 -1.40625 C 0.796875 -1.445312 0.882812 -1.46875 1 -1.46875 L 1.546875 -1.46875 L 1.546875 -5.140625 L 0.859375 -5.140625 C 0.742188 -5.140625 0.65625 -5.15625 0.59375 -5.1875 C 0.53125 -5.226562 0.484375 -5.300781 0.453125 -5.40625 C 0.421875 -5.507812 0.40625 -5.660156 0.40625 -5.859375 C 0.40625 -6.054688 0.421875 -6.207031 0.453125 -6.3125 C 0.484375 -6.425781 0.53125 -6.5 0.59375 -6.53125 C 0.65625 -6.570312 0.742188 -6.59375 0.859375 -6.59375 L 2.59375 -6.59375 C 2.757812 -6.59375 2.875 -6.554688 2.9375 -6.484375 C 3.007812 -6.421875 3.046875 -6.3125 3.046875 -6.15625 L 3.046875 -5.109375 C 3.671875 -6.203125 4.457031 -6.75 5.40625 -6.75 Z M 5.40625 -6.75 "/></g></g></g><g fill="#a6a6a6" fill-opacity="1"><g transform="translate(170.386597, 298.202764)"><g><path d="M 6.984375 -9.375 C 7.148438 -9.375 7.265625 -9.335938 7.328125 -9.265625 C 7.398438 -9.191406 7.4375 -9.078125 7.4375 -8.921875 L 7.4375 -1.46875 L 8.0625 -1.46875 C 8.175781 -1.46875 8.257812 -1.445312 8.3125 -1.40625 C 8.375 -1.363281 8.421875 -1.289062 8.453125 -1.1875 C 8.484375 -1.082031 8.5 -0.929688 8.5 -0.734375 C 8.5 -0.535156 8.484375 -0.382812 8.453125 -0.28125 C 8.421875 -0.175781 8.375 -0.101562 8.3125 -0.0625 C 8.257812 -0.0195312 8.175781 0 8.0625 0 L 6.390625 0 C 6.222656 0 6.101562 -0.03125 6.03125 -0.09375 C 5.96875 -0.164062 5.9375 -0.285156 5.9375 -0.453125 L 5.9375 -1.046875 C 5.6875 -0.671875 5.375 -0.375 5 -0.15625 C 4.632812 0.0507812 4.222656 0.15625 3.765625 0.15625 C 3.140625 0.15625 2.59375 0.00390625 2.125 -0.296875 C 1.664062 -0.597656 1.3125 -1.007812 1.0625 -1.53125 C 0.8125 -2.0625 0.6875 -2.648438 0.6875 -3.296875 C 0.6875 -3.941406 0.8125 -4.523438 1.0625 -5.046875 C 1.3125 -5.578125 1.664062 -5.992188 2.125 -6.296875 C 2.59375 -6.597656 3.140625 -6.75 3.765625 -6.75 C 4.140625 -6.75 4.484375 -6.675781 4.796875 -6.53125 C 5.117188 -6.382812 5.40625 -6.175781 5.65625 -5.90625 L 5.65625 -7.90625 L 4.59375 -7.90625 C 4.476562 -7.90625 4.390625 -7.921875 4.328125 -7.953125 C 4.265625 -7.992188 4.21875 -8.066406 4.1875 -8.171875 C 4.164062 -8.273438 4.15625 -8.429688 4.15625 -8.640625 C 4.15625 -8.835938 4.164062 -8.988281 4.1875 -9.09375 C 4.21875 -9.195312 4.265625 -9.269531 4.328125 -9.3125 C 4.390625 -9.351562 4.476562 -9.375 4.59375 -9.375 Z M 4.0625 -5.140625 C 3.757812 -5.140625 3.5 -5.0625 3.28125 -4.90625 C 3.0625 -4.757812 2.894531 -4.546875 2.78125 -4.265625 C 2.664062 -3.992188 2.609375 -3.671875 2.609375 -3.296875 C 2.609375 -2.929688 2.664062 -2.609375 2.78125 -2.328125 C 2.894531 -2.046875 3.0625 -1.832031 3.28125 -1.6875 C 3.5 -1.539062 3.757812 -1.46875 4.0625 -1.46875 C 4.363281 -1.46875 4.632812 -1.535156 4.875 -1.671875 C 5.125 -1.816406 5.320312 -2.03125 5.46875 -2.3125 C 5.625 -2.59375 5.703125 -2.921875 5.703125 -3.296875 C 5.703125 -3.679688 5.625 -4.007812 5.46875 -4.28125 C 5.320312 -4.5625 5.125 -4.773438 4.875 -4.921875 C 4.632812 -5.066406 4.363281 -5.140625 4.0625 -5.140625 Z M 4.0625 -5.140625 "/></g></g></g><g fill="#a6a6a6" fill-opacity="1"><g transform="translate(179.155883, 298.202764)"><g/></g></g><g fill="#a6a6a6" fill-opacity="1"><g transform="translate(187.92517, 298.202764)"><g><path d="M 6.984375 -9.375 C 7.148438 -9.375 7.265625 -9.335938 7.328125 -9.265625 C 7.398438 -9.191406 7.4375 -9.078125 7.4375 -8.921875 L 7.4375 -1.46875 L 8.0625 -1.46875 C 8.175781 -1.46875 8.257812 -1.445312 8.3125 -1.40625 C 8.375 -1.363281 8.421875 -1.289062 8.453125 -1.1875 C 8.484375 -1.082031 8.5 -0.929688 8.5 -0.734375 C 8.5 -0.535156 8.484375 -0.382812 8.453125 -0.28125 C 8.421875 -0.175781 8.375 -0.101562 8.3125 -0.0625 C 8.257812 -0.0195312 8.175781 0 8.0625 0 L 6.390625 0 C 6.222656 0 6.101562 -0.03125 6.03125 -0.09375 C 5.96875 -0.164062 5.9375 -0.285156 5.9375 -0.453125 L 5.9375 -1.046875 C 5.6875 -0.671875 5.375 -0.375 5 -0.15625 C 4.632812 0.0507812 4.222656 0.15625 3.765625 0.15625 C 3.140625 0.15625 2.59375 0.00390625 2.125 -0.296875 C 1.664062 -0.597656 1.3125 -1.007812 1.0625 -1.53125 C 0.8125 -2.0625 0.6875 -2.648438 0.6875 -3.296875 C 0.6875 -3.941406 0.8125 -4.523438 1.0625 -5.046875 C 1.3125 -5.578125 1.664062 -5.992188 2.125 -6.296875 C 2.59375 -6.597656 3.140625 -6.75 3.765625 -6.75 C 4.140625 -6.75 4.484375 -6.675781 4.796875 -6.53125 C 5.117188 -6.382812 5.40625 -6.175781 5.65625 -5.90625 L 5.65625 -7.90625 L 4.59375 -7.90625 C 4.476562 -7.90625 4.390625 -7.921875 4.328125 -7.953125 C 4.265625 -7.992188 4.21875 -8.066406 4.1875 -8.171875 C 4.164062 -8.273438 4.15625 -8.429688 4.15625 -8.640625 C 4.15625 -8.835938 4.164062 -8.988281 4.1875 -9.09375 C 4.21875 -9.195312 4.265625 -9.269531 4.328125 -9.3125 C 4.390625 -9.351562 4.476562 -9.375 4.59375 -9.375 Z M 4.0625 -5.140625 C 3.757812 -5.140625 3.5 -5.0625 3.28125 -4.90625 C 3.0625 -4.757812 2.894531 -4.546875 2.78125 -4.265625 C 2.664062 -3.992188 2.609375 -3.671875 2.609375 -3.296875 C 2.609375 -2.929688 2.664062 -2.609375 2.78125 -2.328125 C 2.894531 -2.046875 3.0625 -1.832031 3.28125 -1.6875 C 3.5 -1.539062 3.757812 -1.46875 4.0625 -1.46875 C 4.363281 -1.46875 4.632812 -1.535156 4.875 -1.671875 C 5.125 -1.816406 5.320312 -2.03125 5.46875 -2.3125 C 5.625 -2.59375 5.703125 -2.921875 5.703125 -3.296875 C 5.703125 -3.679688 5.625 -4.007812 5.46875 -4.28125 C 5.320312 -4.5625 5.125 -4.773438 4.875 -4.921875 C 4.632812 -5.066406 4.363281 -5.140625 4.0625 -5.140625 Z M 4.0625 -5.140625 "/></g></g></g><g fill="#a6a6a6" fill-opacity="1"><g transform="translate(196.694456, 298.202764)"><g><path d="M 4.484375 -6.75 C 5.203125 -6.75 5.816406 -6.59375 6.328125 -6.28125 C 6.835938 -5.96875 7.222656 -5.535156 7.484375 -4.984375 C 7.742188 -4.429688 7.875 -3.796875 7.875 -3.078125 C 7.875 -2.921875 7.835938 -2.804688 7.765625 -2.734375 C 7.703125 -2.671875 7.585938 -2.640625 7.421875 -2.640625 L 2.84375 -2.640625 C 2.9375 -2.265625 3.128906 -1.972656 3.421875 -1.765625 C 3.722656 -1.566406 4.101562 -1.46875 4.5625 -1.46875 C 5.289062 -1.46875 6.085938 -1.597656 6.953125 -1.859375 C 7.015625 -1.878906 7.070312 -1.890625 7.125 -1.890625 C 7.226562 -1.890625 7.316406 -1.835938 7.390625 -1.734375 C 7.472656 -1.640625 7.546875 -1.476562 7.609375 -1.25 C 7.648438 -1.082031 7.671875 -0.9375 7.671875 -0.8125 C 7.671875 -0.6875 7.644531 -0.585938 7.59375 -0.515625 C 7.539062 -0.453125 7.453125 -0.394531 7.328125 -0.34375 C 6.847656 -0.1875 6.359375 -0.0664062 5.859375 0.015625 C 5.367188 0.109375 4.882812 0.15625 4.40625 0.15625 C 3.6875 0.15625 3.0625 0.0078125 2.53125 -0.28125 C 2.007812 -0.582031 1.613281 -0.992188 1.34375 -1.515625 C 1.070312 -2.035156 0.9375 -2.628906 0.9375 -3.296875 C 0.9375 -3.960938 1.078125 -4.554688 1.359375 -5.078125 C 1.648438 -5.609375 2.0625 -6.019531 2.59375 -6.3125 C 3.132812 -6.601562 3.765625 -6.75 4.484375 -6.75 Z M 4.484375 -5.140625 C 3.609375 -5.140625 3.070312 -4.769531 2.875 -4.03125 L 6.015625 -4.03125 C 5.929688 -4.382812 5.753906 -4.65625 5.484375 -4.84375 C 5.222656 -5.039062 4.890625 -5.140625 4.484375 -5.140625 Z M 4.484375 -5.140625 "/></g></g></g><g fill="#a6a6a6" fill-opacity="1"><g transform="translate(205.463743, 298.202764)"><g><path d="M 8.03125 -6.59375 C 8.144531 -6.59375 8.234375 -6.570312 8.296875 -6.53125 C 8.359375 -6.5 8.40625 -6.425781 8.4375 -6.3125 C 8.46875 -6.207031 8.484375 -6.054688 8.484375 -5.859375 C 8.484375 -5.660156 8.46875 -5.507812 8.4375 -5.40625 C 8.40625 -5.300781 8.359375 -5.226562 8.296875 -5.1875 C 8.234375 -5.15625 8.144531 -5.140625 8.03125 -5.140625 L 7.546875 -5.140625 L 5.453125 -0.3125 C 5.378906 -0.144531 5.257812 -0.0234375 5.09375 0.046875 C 4.9375 0.117188 4.691406 0.15625 4.359375 0.15625 C 4.023438 0.15625 3.78125 0.117188 3.625 0.046875 C 3.46875 -0.0234375 3.351562 -0.144531 3.28125 -0.3125 L 1.203125 -5.140625 L 0.734375 -5.140625 C 0.617188 -5.140625 0.53125 -5.15625 0.46875 -5.1875 C 0.40625 -5.226562 0.359375 -5.300781 0.328125 -5.40625 C 0.296875 -5.507812 0.28125 -5.660156 0.28125 -5.859375 C 0.28125 -6.054688 0.296875 -6.207031 0.328125 -6.3125 C 0.359375 -6.425781 0.40625 -6.5 0.46875 -6.53125 C 0.53125 -6.570312 0.617188 -6.59375 0.734375 -6.59375 L 3.625 -6.59375 C 3.738281 -6.59375 3.828125 -6.570312 3.890625 -6.53125 C 3.953125 -6.5 4 -6.425781 4.03125 -6.3125 C 4.0625 -6.207031 4.078125 -6.054688 4.078125 -5.859375 C 4.078125 -5.660156 4.0625 -5.507812 4.03125 -5.40625 C 4 -5.300781 3.953125 -5.226562 3.890625 -5.1875 C 3.828125 -5.15625 3.738281 -5.140625 3.625 -5.140625 L 3.140625 -5.140625 L 4.40625 -1.984375 L 5.6875 -5.140625 L 5.296875 -5.140625 C 5.179688 -5.140625 5.09375 -5.15625 5.03125 -5.1875 C 4.96875 -5.226562 4.921875 -5.300781 4.890625 -5.40625 C 4.859375 -5.507812 4.84375 -5.660156 4.84375 -5.859375 C 4.84375 -6.054688 4.859375 -6.207031 4.890625 -6.3125 C 4.921875 -6.425781 4.96875 -6.5 5.03125 -6.53125 C 5.09375 -6.570312 5.179688 -6.59375 5.296875 -6.59375 Z M 8.03125 -6.59375 "/></g></g></g><g fill="#a6a6a6" fill-opacity="1"><g transform="translate(214.233029, 298.202764)"><g><path d="M 4.484375 -6.75 C 5.203125 -6.75 5.816406 -6.59375 6.328125 -6.28125 C 6.835938 -5.96875 7.222656 -5.535156 7.484375 -4.984375 C 7.742188 -4.429688 7.875 -3.796875 7.875 -3.078125 C 7.875 -2.921875 7.835938 -2.804688 7.765625 -2.734375 C 7.703125 -2.671875 7.585938 -2.640625 7.421875 -2.640625 L 2.84375 -2.640625 C 2.9375 -2.265625 3.128906 -1.972656 3.421875 -1.765625 C 3.722656 -1.566406 4.101562 -1.46875 4.5625 -1.46875 C 5.289062 -1.46875 6.085938 -1.597656 6.953125 -1.859375 C 7.015625 -1.878906 7.070312 -1.890625 7.125 -1.890625 C 7.226562 -1.890625 7.316406 -1.835938 7.390625 -1.734375 C 7.472656 -1.640625 7.546875 -1.476562 7.609375 -1.25 C 7.648438 -1.082031 7.671875 -0.9375 7.671875 -0.8125 C 7.671875 -0.6875 7.644531 -0.585938 7.59375 -0.515625 C 7.539062 -0.453125 7.453125 -0.394531 7.328125 -0.34375 C 6.847656 -0.1875 6.359375 -0.0664062 5.859375 0.015625 C 5.367188 0.109375 4.882812 0.15625 4.40625 0.15625 C 3.6875 0.15625 3.0625 0.0078125 2.53125 -0.28125 C 2.007812 -0.582031 1.613281 -0.992188 1.34375 -1.515625 C 1.070312 -2.035156 0.9375 -2.628906 0.9375 -3.296875 C 0.9375 -3.960938 1.078125 -4.554688 1.359375 -5.078125 C 1.648438 -5.609375 2.0625 -6.019531 2.59375 -6.3125 C 3.132812 -6.601562 3.765625 -6.75 4.484375 -6.75 Z M 4.484375 -5.140625 C 3.609375 -5.140625 3.070312 -4.769531 2.875 -4.03125 L 6.015625 -4.03125 C 5.929688 -4.382812 5.753906 -4.65625 5.484375 -4.84375 C 5.222656 -5.039062 4.890625 -5.140625 4.484375 -5.140625 Z M 4.484375 -5.140625 "/></g></g></g><g fill="#a6a6a6" fill-opacity="1"><g transform="translate(223.002316, 298.202764)"><g><path d="M 4.859375 -9.375 C 5.015625 -9.375 5.128906 -9.335938 5.203125 -9.265625 C 5.273438 -9.191406 5.3125 -9.078125 5.3125 -8.921875 L 5.3125 -1.46875 L 7.3125 -1.46875 C 7.425781 -1.46875 7.515625 -1.445312 7.578125 -1.40625 C 7.640625 -1.363281 7.6875 -1.289062 7.71875 -1.1875 C 7.75 -1.082031 7.765625 -0.929688 7.765625 -0.734375 C 7.765625 -0.523438 7.75 -0.367188 7.71875 -0.265625 C 7.6875 -0.160156 7.640625 -0.0859375 7.578125 -0.046875 C 7.515625 -0.015625 7.425781 0 7.3125 0 L 1.578125 0 C 1.460938 0 1.375 -0.015625 1.3125 -0.046875 C 1.25 -0.0859375 1.203125 -0.160156 1.171875 -0.265625 C 1.140625 -0.367188 1.125 -0.523438 1.125 -0.734375 C 1.125 -0.929688 1.140625 -1.082031 1.171875 -1.1875 C 1.203125 -1.289062 1.25 -1.363281 1.3125 -1.40625 C 1.375 -1.445312 1.460938 -1.46875 1.578125 -1.46875 L 3.515625 -1.46875 L 3.515625 -7.90625 L 1.859375 -7.90625 C 1.742188 -7.90625 1.65625 -7.921875 1.59375 -7.953125 C 1.53125 -7.992188 1.484375 -8.066406 1.453125 -8.171875 C 1.421875 -8.273438 1.40625 -8.429688 1.40625 -8.640625 C 1.40625 -8.835938 1.421875 -8.988281 1.453125 -9.09375 C 1.484375 -9.195312 1.53125 -9.269531 1.59375 -9.3125 C 1.65625 -9.351562 1.742188 -9.375 1.859375 -9.375 Z M 4.859375 -9.375 "/></g></g></g><g fill="#a6a6a6" fill-opacity="1"><g transform="translate(231.771602, 298.202764)"><g><path d="M 4.390625 -6.75 C 5.109375 -6.75 5.738281 -6.601562 6.28125 -6.3125 C 6.820312 -6.019531 7.238281 -5.609375 7.53125 -5.078125 C 7.832031 -4.554688 7.984375 -3.960938 7.984375 -3.296875 C 7.984375 -2.628906 7.832031 -2.035156 7.53125 -1.515625 C 7.238281 -0.992188 6.820312 -0.582031 6.28125 -0.28125 C 5.738281 0.0078125 5.109375 0.15625 4.390625 0.15625 C 3.660156 0.15625 3.023438 0.0078125 2.484375 -0.28125 C 1.941406 -0.582031 1.523438 -0.992188 1.234375 -1.515625 C 0.941406 -2.035156 0.796875 -2.628906 0.796875 -3.296875 C 0.796875 -3.960938 0.941406 -4.554688 1.234375 -5.078125 C 1.523438 -5.609375 1.941406 -6.019531 2.484375 -6.3125 C 3.023438 -6.601562 3.660156 -6.75 4.390625 -6.75 Z M 4.390625 -5.140625 C 4.046875 -5.140625 3.742188 -5.0625 3.484375 -4.90625 C 3.234375 -4.757812 3.039062 -4.546875 2.90625 -4.265625 C 2.769531 -3.992188 2.703125 -3.671875 2.703125 -3.296875 C 2.703125 -2.929688 2.769531 -2.609375 2.90625 -2.328125 C 3.039062 -2.046875 3.234375 -1.832031 3.484375 -1.6875 C 3.742188 -1.539062 4.046875 -1.46875 4.390625 -1.46875 C 4.734375 -1.46875 5.03125 -1.539062 5.28125 -1.6875 C 5.53125 -1.832031 5.722656 -2.046875 5.859375 -2.328125 C 5.992188 -2.609375 6.0625 -2.929688 6.0625 -3.296875 C 6.0625 -3.671875 5.992188 -3.992188 5.859375 -4.265625 C 5.722656 -4.546875 5.53125 -4.757812 5.28125 -4.90625 C 5.03125 -5.0625 4.734375 -5.140625 4.390625 -5.140625 Z M 4.390625 -5.140625 "/></g></g></g><g fill="#a6a6a6" fill-opacity="1"><g transform="translate(240.540889, 298.202764)"><g><path d="M 5 -6.75 C 5.625 -6.75 6.164062 -6.597656 6.625 -6.296875 C 7.09375 -5.992188 7.453125 -5.578125 7.703125 -5.046875 C 7.953125 -4.523438 8.078125 -3.941406 8.078125 -3.296875 C 8.078125 -2.648438 7.953125 -2.0625 7.703125 -1.53125 C 7.453125 -1.007812 7.09375 -0.597656 6.625 -0.296875 C 6.164062 0.00390625 5.625 0.15625 5 0.15625 C 4.625 0.15625 4.273438 0.0820312 3.953125 -0.0625 C 3.640625 -0.207031 3.363281 -0.414062 3.125 -0.6875 L 3.125 1.3125 L 4.3125 1.3125 C 4.425781 1.3125 4.515625 1.328125 4.578125 1.359375 C 4.640625 1.398438 4.6875 1.472656 4.71875 1.578125 C 4.75 1.679688 4.765625 1.832031 4.765625 2.03125 C 4.765625 2.226562 4.75 2.378906 4.71875 2.484375 C 4.6875 2.597656 4.640625 2.671875 4.578125 2.703125 C 4.515625 2.742188 4.425781 2.765625 4.3125 2.765625 L 0.71875 2.765625 C 0.601562 2.765625 0.515625 2.742188 0.453125 2.703125 C 0.390625 2.671875 0.34375 2.601562 0.3125 2.5 C 0.28125 2.394531 0.265625 2.242188 0.265625 2.046875 C 0.265625 1.847656 0.28125 1.691406 0.3125 1.578125 C 0.34375 1.472656 0.390625 1.398438 0.453125 1.359375 C 0.515625 1.328125 0.601562 1.3125 0.71875 1.3125 L 1.328125 1.3125 L 1.328125 -5.140625 L 0.71875 -5.140625 C 0.601562 -5.140625 0.515625 -5.15625 0.453125 -5.1875 C 0.390625 -5.226562 0.34375 -5.300781 0.3125 -5.40625 C 0.28125 -5.507812 0.265625 -5.660156 0.265625 -5.859375 C 0.265625 -6.054688 0.28125 -6.207031 0.3125 -6.3125 C 0.34375 -6.425781 0.390625 -6.5 0.453125 -6.53125 C 0.515625 -6.570312 0.601562 -6.59375 0.71875 -6.59375 L 2.390625 -6.59375 C 2.546875 -6.59375 2.65625 -6.554688 2.71875 -6.484375 C 2.789062 -6.421875 2.828125 -6.3125 2.828125 -6.15625 L 2.828125 -5.546875 C 3.078125 -5.929688 3.390625 -6.226562 3.765625 -6.4375 C 4.140625 -6.644531 4.550781 -6.75 5 -6.75 Z M 4.71875 -5.140625 C 4.40625 -5.140625 4.125 -5.066406 3.875 -4.921875 C 3.632812 -4.773438 3.441406 -4.5625 3.296875 -4.28125 C 3.148438 -4.007812 3.078125 -3.679688 3.078125 -3.296875 C 3.078125 -2.921875 3.148438 -2.59375 3.296875 -2.3125 C 3.441406 -2.03125 3.632812 -1.816406 3.875 -1.671875 C 4.125 -1.535156 4.40625 -1.46875 4.71875 -1.46875 C 5.007812 -1.46875 5.265625 -1.539062 5.484375 -1.6875 C 5.703125 -1.832031 5.867188 -2.046875 5.984375 -2.328125 C 6.097656 -2.609375 6.15625 -2.929688 6.15625 -3.296875 C 6.15625 -3.671875 6.097656 -3.992188 5.984375 -4.265625 C 5.867188 -4.546875 5.703125 -4.757812 5.484375 -4.90625 C 5.265625 -5.0625 5.007812 -5.140625 4.71875 -5.140625 Z M 4.71875 -5.140625 "/></g></g></g><g fill="#a6a6a6" fill-opacity="1"><g transform="translate(249.310176, 298.202764)"><g><path d="M 4.484375 -6.75 C 5.203125 -6.75 5.816406 -6.59375 6.328125 -6.28125 C 6.835938 -5.96875 7.222656 -5.535156 7.484375 -4.984375 C 7.742188 -4.429688 7.875 -3.796875 7.875 -3.078125 C 7.875 -2.921875 7.835938 -2.804688 7.765625 -2.734375 C 7.703125 -2.671875 7.585938 -2.640625 7.421875 -2.640625 L 2.84375 -2.640625 C 2.9375 -2.265625 3.128906 -1.972656 3.421875 -1.765625 C 3.722656 -1.566406 4.101562 -1.46875 4.5625 -1.46875 C 5.289062 -1.46875 6.085938 -1.597656 6.953125 -1.859375 C 7.015625 -1.878906 7.070312 -1.890625 7.125 -1.890625 C 7.226562 -1.890625 7.316406 -1.835938 7.390625 -1.734375 C 7.472656 -1.640625 7.546875 -1.476562 7.609375 -1.25 C 7.648438 -1.082031 7.671875 -0.9375 7.671875 -0.8125 C 7.671875 -0.6875 7.644531 -0.585938 7.59375 -0.515625 C 7.539062 -0.453125 7.453125 -0.394531 7.328125 -0.34375 C 6.847656 -0.1875 6.359375 -0.0664062 5.859375 0.015625 C 5.367188 0.109375 4.882812 0.15625 4.40625 0.15625 C 3.6875 0.15625 3.0625 0.0078125 2.53125 -0.28125 C 2.007812 -0.582031 1.613281 -0.992188 1.34375 -1.515625 C 1.070312 -2.035156 0.9375 -2.628906 0.9375 -3.296875 C 0.9375 -3.960938 1.078125 -4.554688 1.359375 -5.078125 C 1.648438 -5.609375 2.0625 -6.019531 2.59375 -6.3125 C 3.132812 -6.601562 3.765625 -6.75 4.484375 -6.75 Z M 4.484375 -5.140625 C 3.609375 -5.140625 3.070312 -4.769531 2.875 -4.03125 L 6.015625 -4.03125 C 5.929688 -4.382812 5.753906 -4.65625 5.484375 -4.84375 C 5.222656 -5.039062 4.890625 -5.140625 4.484375 -5.140625 Z M 4.484375 -5.140625 "/></g></g></g><g fill="#a6a6a6" fill-opacity="1"><g transform="translate(258.079462, 298.202764)"><g><path d="M 6.625 -6.75 C 7.03125 -6.75 7.410156 -6.617188 7.765625 -6.359375 C 7.972656 -6.203125 8.078125 -6 8.078125 -5.75 C 8.078125 -5.59375 8.035156 -5.410156 7.953125 -5.203125 C 7.859375 -4.984375 7.757812 -4.816406 7.65625 -4.703125 C 7.550781 -4.597656 7.4375 -4.546875 7.3125 -4.546875 C 7.25 -4.546875 7.179688 -4.566406 7.109375 -4.609375 C 6.835938 -4.753906 6.5625 -4.828125 6.28125 -4.828125 C 5.914062 -4.828125 5.570312 -4.707031 5.25 -4.46875 C 4.925781 -4.238281 4.664062 -3.921875 4.46875 -3.515625 C 4.28125 -3.109375 4.1875 -2.648438 4.1875 -2.140625 L 4.1875 -1.46875 L 6.234375 -1.46875 C 6.347656 -1.46875 6.4375 -1.445312 6.5 -1.40625 C 6.5625 -1.363281 6.609375 -1.289062 6.640625 -1.1875 C 6.671875 -1.082031 6.6875 -0.929688 6.6875 -0.734375 C 6.6875 -0.523438 6.671875 -0.367188 6.640625 -0.265625 C 6.609375 -0.160156 6.5625 -0.0859375 6.5 -0.046875 C 6.4375 -0.015625 6.347656 0 6.234375 0 L 1.359375 0 C 1.242188 0 1.15625 -0.015625 1.09375 -0.046875 C 1.03125 -0.0859375 0.984375 -0.160156 0.953125 -0.265625 C 0.921875 -0.367188 0.90625 -0.523438 0.90625 -0.734375 C 0.90625 -0.929688 0.921875 -1.082031 0.953125 -1.1875 C 0.984375 -1.289062 1.03125 -1.363281 1.09375 -1.40625 C 1.15625 -1.445312 1.242188 -1.46875 1.359375 -1.46875 L 2.40625 -1.46875 L 2.40625 -5.140625 L 1.578125 -5.140625 C 1.460938 -5.140625 1.375 -5.15625 1.3125 -5.1875 C 1.25 -5.226562 1.203125 -5.300781 1.171875 -5.40625 C 1.140625 -5.507812 1.125 -5.660156 1.125 -5.859375 C 1.125 -6.054688 1.140625 -6.207031 1.171875 -6.3125 C 1.203125 -6.425781 1.25 -6.5 1.3125 -6.53125 C 1.375 -6.570312 1.460938 -6.59375 1.578125 -6.59375 L 3.53125 -6.59375 C 3.6875 -6.59375 3.800781 -6.554688 3.875 -6.484375 C 3.945312 -6.421875 3.984375 -6.3125 3.984375 -6.15625 L 3.984375 -4.59375 C 4.335938 -5.289062 4.742188 -5.820312 5.203125 -6.1875 C 5.671875 -6.5625 6.144531 -6.75 6.625 -6.75 Z M 6.625 -6.75 "/></g></g></g><g fill="#a6a6a6" fill-opacity="0.4"><g transform="translate(72.245174, 275.429732)"><g><path d="M 1.578125 0 L 1.578125 -24.046875 L 8.375 -24.046875 L 11.765625 -13.15625 L 11.8125 -13.15625 L 15.609375 -24.046875 L 21.546875 -24.046875 L 21.546875 0 L 17.390625 0 L 17.390625 -18.359375 L 17.328125 -18.359375 L 13.390625 -6.015625 L 9.15625 -6.015625 L 5.328125 -18.375 L 5.265625 -18.375 L 5.265625 0 Z M 1.578125 0 "/></g></g></g><g fill="#a6a6a6" fill-opacity="0.4"><g transform="translate(95.362902, 275.429732)"><g><path d="M 0.390625 0 L 8.78125 -24.046875 L 14.328125 -24.046875 L 22.703125 0 L 16.96875 0 L 15.015625 -5.640625 L 6.515625 -5.640625 L 4.546875 0 Z M 7.71875 -9.109375 L 13.8125 -9.109375 L 10.796875 -17.75 L 10.734375 -17.75 Z M 7.71875 -9.109375 "/></g></g></g><g fill="#a6a6a6" fill-opacity="0.4"><g transform="translate(118.48063, 275.429732)"><g><path d="M 2.5625 0 L 2.5625 -24.046875 L 13.09375 -24.046875 C 15.539062 -24.046875 17.445312 -23.507812 18.8125 -22.4375 C 20.175781 -21.375 20.859375 -19.882812 20.859375 -17.96875 C 20.859375 -14.875 19.164062 -12.550781 15.78125 -11 L 22.875 0 L 16.28125 0 L 10.140625 -9.5625 L 8.109375 -9.5625 L 8.109375 0 Z M 8.109375 -13.015625 L 9.140625 -13.015625 C 10.878906 -13.015625 12.296875 -13.429688 13.390625 -14.265625 C 14.484375 -15.097656 15.03125 -16.175781 15.03125 -17.5 C 15.03125 -18.476562 14.628906 -19.238281 13.828125 -19.78125 C 13.304688 -20.15625 11.992188 -20.34375 9.890625 -20.34375 L 8.109375 -20.34375 Z M 8.109375 -13.015625 "/></g></g></g><g fill="#a6a6a6" fill-opacity="0.4"><g transform="translate(141.598358, 275.429732)"><g><path d="M 22.1875 -0.6875 C 19.394531 0.15625 16.644531 0.578125 13.9375 0.578125 C 10 0.578125 6.832031 -0.578125 4.4375 -2.890625 C 2.050781 -5.203125 0.859375 -8.25 0.859375 -12.03125 C 0.859375 -15.539062 1.921875 -18.453125 4.046875 -20.765625 C 5.304688 -22.148438 6.773438 -23.140625 8.453125 -23.734375 C 10.140625 -24.328125 12.300781 -24.625 14.9375 -24.625 C 17.601562 -24.625 20.019531 -24.382812 22.1875 -23.90625 L 22.1875 -19.625 C 19.375 -20.5 17.015625 -20.9375 15.109375 -20.9375 C 12.597656 -20.9375 10.59375 -20.125 9.09375 -18.5 C 7.601562 -16.875 6.859375 -14.6875 6.859375 -11.9375 C 6.859375 -9.425781 7.640625 -7.367188 9.203125 -5.765625 C 10.765625 -4.160156 12.769531 -3.359375 15.21875 -3.359375 C 17.300781 -3.359375 19.625 -3.835938 22.1875 -4.796875 Z M 22.1875 -0.6875 "/></g></g></g><g fill="#a6a6a6" fill-opacity="0.4"><g transform="translate(164.716085, 275.429732)"><g><path d="M 3.140625 0 L 3.140625 -24.046875 L 20.484375 -24.046875 L 20.484375 -20.34375 L 8.6875 -20.34375 L 8.6875 -14.265625 L 18.640625 -14.265625 L 18.640625 -10.796875 L 8.6875 -10.796875 L 8.6875 -3.6875 L 21.46875 -3.6875 L 21.46875 0 Z M 3.140625 0 "/></g></g></g><g fill="#a6a6a6" fill-opacity="0.4"><g transform="translate(187.833813, 275.429732)"><g/></g></g><g fill="#a6a6a6" fill-opacity="0.4"><g transform="translate(210.951541, 275.429732)"><g><path d="M 2.921875 0.0625 L 2.921875 -4.3125 C 5.273438 -3.675781 7.335938 -3.359375 9.109375 -3.359375 C 10.671875 -3.359375 11.925781 -3.765625 12.875 -4.578125 C 13.75 -5.335938 14.1875 -6.84375 14.1875 -9.09375 L 14.1875 -20.34375 L 4.953125 -20.34375 L 4.953125 -24.046875 L 19.75 -24.046875 L 19.75 -9.1875 C 19.75 -6.84375 19.570312 -5.148438 19.21875 -4.109375 C 18.863281 -3.078125 18.132812 -2.15625 17.03125 -1.34375 C 15.332031 -0.0625 12.800781 0.578125 9.4375 0.578125 C 7.207031 0.578125 5.035156 0.40625 2.921875 0.0625 Z M 2.921875 0.0625 "/></g></g></g><g fill="#a6a6a6" fill-opacity="0.4"><g transform="translate(234.069269, 275.429732)"><g><path d="M 0.390625 0 L 8.78125 -24.046875 L 14.328125 -24.046875 L 22.703125 0 L 16.96875 0 L 15.015625 -5.640625 L 6.515625 -5.640625 L 4.546875 0 Z M 7.71875 -9.109375 L 13.8125 -9.109375 L 10.796875 -17.75 L 10.734375 -17.75 Z M 7.71875 -9.109375 "/></g></g></g><g fill="#a6a6a6" fill-opacity="0.4"><g transform="translate(257.186996, 275.429732)"><g><path d="M 8.78125 0 L 0.25 -24.046875 L 6.125 -24.046875 L 12.265625 -6.75 L 12.328125 -6.75 L 18.453125 -24.046875 L 22.859375 -24.046875 L 14.328125 0 Z M 8.78125 0 "/></g></g></g><g fill="#a6a6a6" fill-opacity="0.4"><g transform="translate(280.304724, 275.429732)"><g><path d="M 0.390625 0 L 8.78125 -24.046875 L 14.328125 -24.046875 L 22.703125 0 L 16.96875 0 L 15.015625 -5.640625 L 6.515625 -5.640625 L 4.546875 0 Z M 7.71875 -9.109375 L 13.8125 -9.109375 L 10.796875 -17.75 L 10.734375 -17.75 Z M 7.71875 -9.109375 "/></g></g></g><g fill="#a6a6a6" fill-opacity="1"><g transform="translate(71.905927, 275.09049)"><g><path d="M 1.578125 0 L 1.578125 -24.046875 L 8.375 -24.046875 L 11.765625 -13.15625 L 11.8125 -13.15625 L 15.609375 -24.046875 L 21.546875 -24.046875 L 21.546875 0 L 17.390625 0 L 17.390625 -18.359375 L 17.328125 -18.359375 L 13.390625 -6.015625 L 9.15625 -6.015625 L 5.328125 -18.375 L 5.265625 -18.375 L 5.265625 0 Z M 1.578125 0 "/></g></g></g><g fill="#a6a6a6" fill-opacity="1"><g transform="translate(95.023655, 275.09049)"><g><path d="M 0.390625 0 L 8.78125 -24.046875 L 14.328125 -24.046875 L 22.703125 0 L 16.96875 0 L 15.015625 -5.640625 L 6.515625 -5.640625 L 4.546875 0 Z M 7.71875 -9.109375 L 13.8125 -9.109375 L 10.796875 -17.75 L 10.734375 -17.75 Z M 7.71875 -9.109375 "/></g></g></g><g fill="#a6a6a6" fill-opacity="1"><g transform="translate(118.141383, 275.09049)"><g><path d="M 2.5625 0 L 2.5625 -24.046875 L 13.09375 -24.046875 C 15.539062 -24.046875 17.445312 -23.507812 18.8125 -22.4375 C 20.175781 -21.375 20.859375 -19.882812 20.859375 -17.96875 C 20.859375 -14.875 19.164062 -12.550781 15.78125 -11 L 22.875 0 L 16.28125 0 L 10.140625 -9.5625 L 8.109375 -9.5625 L 8.109375 0 Z M 8.109375 -13.015625 L 9.140625 -13.015625 C 10.878906 -13.015625 12.296875 -13.429688 13.390625 -14.265625 C 14.484375 -15.097656 15.03125 -16.175781 15.03125 -17.5 C 15.03125 -18.476562 14.628906 -19.238281 13.828125 -19.78125 C 13.304688 -20.15625 11.992188 -20.34375 9.890625 -20.34375 L 8.109375 -20.34375 Z M 8.109375 -13.015625 "/></g></g></g><g fill="#a6a6a6" fill-opacity="1"><g transform="translate(141.259111, 275.09049)"><g><path d="M 22.1875 -0.6875 C 19.394531 0.15625 16.644531 0.578125 13.9375 0.578125 C 10 0.578125 6.832031 -0.578125 4.4375 -2.890625 C 2.050781 -5.203125 0.859375 -8.25 0.859375 -12.03125 C 0.859375 -15.539062 1.921875 -18.453125 4.046875 -20.765625 C 5.304688 -22.148438 6.773438 -23.140625 8.453125 -23.734375 C 10.140625 -24.328125 12.300781 -24.625 14.9375 -24.625 C 17.601562 -24.625 20.019531 -24.382812 22.1875 -23.90625 L 22.1875 -19.625 C 19.375 -20.5 17.015625 -20.9375 15.109375 -20.9375 C 12.597656 -20.9375 10.59375 -20.125 9.09375 -18.5 C 7.601562 -16.875 6.859375 -14.6875 6.859375 -11.9375 C 6.859375 -9.425781 7.640625 -7.367188 9.203125 -5.765625 C 10.765625 -4.160156 12.769531 -3.359375 15.21875 -3.359375 C 17.300781 -3.359375 19.625 -3.835938 22.1875 -4.796875 Z M 22.1875 -0.6875 "/></g></g></g><g fill="#a6a6a6" fill-opacity="1"><g transform="translate(164.376838, 275.09049)"><g><path d="M 3.140625 0 L 3.140625 -24.046875 L 20.484375 -24.046875 L 20.484375 -20.34375 L 8.6875 -20.34375 L 8.6875 -14.265625 L 18.640625 -14.265625 L 18.640625 -10.796875 L 8.6875 -10.796875 L 8.6875 -3.6875 L 21.46875 -3.6875 L 21.46875 0 Z M 3.140625 0 "/></g></g></g><g fill="#a6a6a6" fill-opacity="1"><g transform="translate(187.494566, 275.09049)"><g/></g></g><g fill="#a6a6a6" fill-opacity="1"><g transform="translate(210.612294, 275.09049)"><g><path d="M 2.921875 0.0625 L 2.921875 -4.3125 C 5.273438 -3.675781 7.335938 -3.359375 9.109375 -3.359375 C 10.671875 -3.359375 11.925781 -3.765625 12.875 -4.578125 C 13.75 -5.335938 14.1875 -6.84375 14.1875 -9.09375 L 14.1875 -20.34375 L 4.953125 -20.34375 L 4.953125 -24.046875 L 19.75 -24.046875 L 19.75 -9.1875 C 19.75 -6.84375 19.570312 -5.148438 19.21875 -4.109375 C 18.863281 -3.078125 18.132812 -2.15625 17.03125 -1.34375 C 15.332031 -0.0625 12.800781 0.578125 9.4375 0.578125 C 7.207031 0.578125 5.035156 0.40625 2.921875 0.0625 Z M 2.921875 0.0625 "/></g></g></g><g fill="#a6a6a6" fill-opacity="1"><g transform="translate(233.730022, 275.09049)"><g><path d="M 0.390625 0 L 8.78125 -24.046875 L 14.328125 -24.046875 L 22.703125 0 L 16.96875 0 L 15.015625 -5.640625 L 6.515625 -5.640625 L 4.546875 0 Z M 7.71875 -9.109375 L 13.8125 -9.109375 L 10.796875 -17.75 L 10.734375 -17.75 Z M 7.71875 -9.109375 "/></g></g></g><g fill="#a6a6a6" fill-opacity="1"><g transform="translate(256.847749, 275.09049)"><g><path d="M 8.78125 0 L 0.25 -24.046875 L 6.125 -24.046875 L 12.265625 -6.75 L 12.328125 -6.75 L 18.453125 -24.046875 L 22.859375 -24.046875 L 14.328125 0 Z M 8.78125 0 "/></g></g></g><g fill="#a6a6a6" fill-opacity="1"><g transform="translate(279.965477, 275.09049)"><g><path d="M 0.390625 0 L 8.78125 -24.046875 L 14.328125 -24.046875 L 22.703125 0 L 16.96875 0 L 15.015625 -5.640625 L 6.515625 -5.640625 L 4.546875 0 Z M 7.71875 -9.109375 L 13.8125 -9.109375 L 10.796875 -17.75 L 10.734375 -17.75 Z M 7.71875 -9.109375 "/></g></g></g><g fill="#737373" fill-opacity="0.4"><g transform="translate(49.415977, 192.709257)"><g><path d="M 8.140625 -41.96875 L 56.09375 -64.015625 L 56.09375 -51.5 L 25.046875 -37.796875 C 24.046875 -37.367188 23.082031 -37.046875 22.15625 -36.828125 C 21.226562 -36.617188 20.375 -36.441406 19.59375 -36.296875 C 18.664062 -36.148438 17.773438 -36.039062 16.921875 -35.96875 L 16.921875 -35.015625 C 17.773438 -34.941406 18.664062 -34.832031 19.59375 -34.6875 C 20.375 -34.539062 21.226562 -34.34375 22.15625 -34.09375 C 23.082031 -33.84375 24.046875 -33.503906 25.046875 -33.078125 L 56.09375 -19.171875 L 56.09375 -6.640625 L 8.140625 -28.578125 Z M 8.140625 -41.96875 "/></g></g></g><g fill="#000000" fill-opacity="1"><g transform="translate(44.684373, 187.97765)"><g><path d="M 8.140625 -41.96875 L 56.09375 -64.015625 L 56.09375 -51.5 L 25.046875 -37.796875 C 24.046875 -37.367188 23.082031 -37.046875 22.15625 -36.828125 C 21.226562 -36.617188 20.375 -36.441406 19.59375 -36.296875 C 18.664062 -36.148438 17.773438 -36.039062 16.921875 -35.96875 L 16.921875 -35.015625 C 17.773438 -34.941406 18.664062 -34.832031 19.59375 -34.6875 C 20.375 -34.539062 21.226562 -34.34375 22.15625 -34.09375 C 23.082031 -33.84375 24.046875 -33.503906 25.046875 -33.078125 L 56.09375 -19.171875 L 56.09375 -6.640625 L 8.140625 -28.578125 Z M 8.140625 -41.96875 "/></g></g></g><g fill="#737373" fill-opacity="0.4"><g transform="translate(272.827311, 192.709257)"><g><path d="M 8.140625 -19.0625 L 39.1875 -32.875 C 40.1875 -33.300781 41.164062 -33.640625 42.125 -33.890625 C 43.09375 -34.140625 43.96875 -34.332031 44.75 -34.46875 C 45.601562 -34.539062 46.460938 -34.613281 47.328125 -34.6875 L 47.328125 -35.546875 C 46.460938 -35.617188 45.601562 -35.757812 44.75 -35.96875 C 43.96875 -36.113281 43.09375 -36.3125 42.125 -36.5625 C 41.164062 -36.8125 40.1875 -37.148438 39.1875 -37.578125 L 8.140625 -51.390625 L 8.140625 -63.921875 L 56.09375 -41.96875 L 56.09375 -28.578125 L 8.140625 -6.640625 Z M 8.140625 -19.0625 "/></g></g></g><g fill="#000000" fill-opacity="1"><g transform="translate(268.095719, 187.97765)"><g><path d="M 8.140625 -19.0625 L 39.1875 -32.875 C 40.1875 -33.300781 41.164062 -33.640625 42.125 -33.890625 C 43.09375 -34.140625 43.96875 -34.332031 44.75 -34.46875 C 45.601562 -34.539062 46.460938 -34.613281 47.328125 -34.6875 L 47.328125 -35.546875 C 46.460938 -35.617188 45.601562 -35.757812 44.75 -35.96875 C 43.96875 -36.113281 43.09375 -36.3125 42.125 -36.5625 C 41.164062 -36.8125 40.1875 -37.148438 39.1875 -37.578125 L 8.140625 -51.390625 L 8.140625 -63.921875 L 56.09375 -41.96875 L 56.09375 -28.578125 L 8.140625 -6.640625 Z M 8.140625 -19.0625 "/></g></g></g><g clip-path="url(#ba050050d7)"><path fill="#737373" d="M 242.070312 211.070312 L 232.984375 211.070312 L 232.984375 174.226562 C 232.984375 167.410156 227.453125 161.976562 220.734375 161.976562 L 197.71875 161.976562 L 197.71875 144.394531 C 194.65625 145.382812 191.300781 145.976562 187.84375 145.976562 C 184.089844 145.976562 180.53125 145.285156 177.273438 144.097656 L 177.273438 161.976562 L 154.257812 161.976562 C 147.539062 161.976562 142.007812 167.410156 142.007812 174.226562 L 142.007812 211.070312 L 132.921875 211.070312 C 131.835938 211.070312 130.945312 210.179688 130.945312 209.09375 L 130.945312 180.449219 C 130.945312 163.460938 144.675781 149.730469 161.566406 149.730469 L 173.320312 149.730469 L 173.320312 142.320312 C 163.839844 137.085938 157.515625 127.109375 157.515625 115.652344 L 157.515625 100.933594 C 157.515625 100.835938 157.515625 100.734375 157.515625 100.734375 C 158.207031 90.957031 151.789062 86.3125 151.589844 86.117188 C 151.097656 85.820312 150.703125 85.226562 150.703125 84.535156 C 150.703125 83.941406 150.996094 83.351562 151.492188 82.957031 C 167.199219 70.609375 180.433594 64.386719 190.804688 64.386719 C 198.804688 64.386719 202.855469 68.238281 204.4375 70.214844 C 204.832031 70.214844 205.226562 70.214844 205.621094 70.214844 C 219.453125 70.214844 223.796875 84.140625 224.09375 91.550781 C 224.6875 98.859375 223.304688 104.390625 220.144531 107.847656 C 219.550781 108.539062 218.859375 109.03125 218.265625 109.527344 L 218.265625 115.652344 C 218.265625 127.40625 211.550781 137.679688 201.671875 142.714844 L 201.671875 149.730469 L 213.328125 149.730469 C 230.21875 149.730469 244.046875 163.460938 244.046875 180.449219 L 244.046875 209.09375 C 244.046875 210.179688 243.15625 211.070312 242.070312 211.070312 Z M 187.84375 134.714844 C 182.902344 134.714844 178.953125 130.765625 178.953125 125.824219 C 178.953125 124.738281 179.839844 123.847656 180.929688 123.847656 C 182.015625 123.847656 182.902344 124.738281 182.902344 125.824219 C 182.902344 128.589844 185.078125 130.765625 187.84375 130.765625 C 190.609375 130.765625 192.78125 128.589844 192.78125 125.824219 C 192.78125 124.738281 193.671875 123.847656 194.757812 123.847656 C 195.84375 123.847656 196.730469 124.738281 196.730469 125.824219 C 196.730469 130.765625 192.78125 134.714844 187.84375 134.714844 Z M 161.46875 102.710938 L 161.46875 115.652344 C 161.46875 125.921875 167.296875 134.8125 175.890625 139.160156 C 176.085938 139.257812 176.1875 139.359375 176.285156 139.457031 C 179.839844 141.136719 183.695312 142.023438 187.84375 142.023438 C 191.695312 142.023438 195.347656 141.234375 198.707031 139.753906 C 198.804688 139.652344 198.90625 139.554688 199.101562 139.554688 C 208.089844 135.308594 214.316406 126.21875 214.316406 115.652344 L 214.316406 111.207031 C 213.425781 111.304688 212.636719 111.402344 212.339844 111.402344 C 212.140625 111.402344 211.945312 111.402344 211.945312 111.402344 C 211.449219 111.304688 210.957031 111.105469 210.5625 110.613281 C 210.265625 110.21875 210.066406 109.625 210.167969 109.132812 C 211.648438 97.773438 207.5 93.425781 205.128906 91.84375 C 202.066406 97.871094 196.039062 101.820312 189.519531 101.820312 C 187.84375 101.820312 186.164062 101.527344 184.484375 101.03125 C 182.3125 100.242188 179.742188 99.945312 176.976562 99.945312 C 171.542969 99.945312 166.210938 101.328125 163.050781 102.21875 C 162.359375 102.414062 161.863281 102.613281 161.46875 102.710938 Z M 161.46875 102.710938 " fill-opacity="1" fill-rule="evenodd"/></g><path fill="#d9d9d9" d="M 145.269531 215.515625 L 145.269531 174.226562 C 145.269531 169.289062 149.320312 165.238281 154.257812 165.238281 L 220.734375 165.238281 C 225.675781 165.238281 229.625 169.289062 229.625 174.226562 L 229.625 215.515625 Z M 187.445312 204.648438 C 179.542969 204.648438 173.125 198.230469 173.125 190.425781 C 173.125 182.523438 179.542969 176.101562 187.445312 176.101562 C 195.347656 176.101562 201.769531 182.523438 201.769531 190.425781 C 201.769531 198.230469 195.347656 204.648438 187.445312 204.648438 Z M 187.445312 180.054688 C 181.71875 180.054688 177.074219 184.695312 177.074219 190.425781 C 177.074219 196.054688 181.71875 200.699219 187.445312 200.699219 C 193.175781 200.699219 197.820312 196.054688 197.820312 190.425781 C 197.820312 184.695312 193.175781 180.054688 187.445312 180.054688 Z M 187.445312 180.054688 " fill-opacity="1" fill-rule="evenodd"/><path fill="#d9d9d9" d="M 234.664062 232.902344 L 140.328125 232.902344 C 139.242188 232.902344 138.355469 232.011719 138.355469 230.925781 L 138.355469 220.75 C 138.355469 219.664062 139.242188 218.773438 140.328125 218.773438 L 234.664062 218.773438 C 235.75 218.773438 236.640625 219.664062 236.640625 220.75 L 236.640625 230.925781 C 236.640625 232.011719 235.75 232.902344 234.664062 232.902344 Z M 234.664062 232.902344 " fill-opacity="1" fill-rule="evenodd"/></svg>